<?xml version="1.0" standalone="no"?>
<!DOCTYPE svg PUBLIC "-//W3C//DTD SVG 20010904//EN"
 "http://www.w3.org/TR/2001/REC-SVG-20010904/DTD/svg10.dtd">
<svg version="1.0" xmlns="http://www.w3.org/2000/svg"
 width="720.000000pt" height="847.000000pt" viewBox="0 0 720.000000 847.000000"
 preserveAspectRatio="xMidYMid meet">

<g transform="translate(0.000000,847.000000) scale(0.100000,-0.100000)"
fill="#000000" stroke="none">
<path d="M6220 8005 c0 -82 -35 -148 -119 -226 -36 -33 -78 -73 -93 -87 -33
-32 -34 -31 -8 43 20 59 25 143 14 229 -8 54 -24 62 -24 11 0 -64 -27 -104
-154 -229 -155 -151 -186 -198 -186 -279 0 -51 -2 -58 -17 -53 -10 2 -56 7
-103 10 -77 6 -111 2 -250 -23 -88 -16 -226 -104 -263 -168 -60 -102 -79 -120
-131 -131 -48 -10 -93 2 -100 26 -16 57 -15 102 2 165 11 37 17 67 13 67 -13
-1 -67 -58 -85 -91 -78 -137 -92 -199 -59 -279 19 -47 87 -96 141 -103 24 -3
46 -8 49 -11 3 -3 -7 -18 -22 -33 -15 -16 -39 -53 -53 -83 l-25 -54 12 -161
c6 -88 16 -194 22 -235 9 -70 5 -192 -8 -250 -6 -24 -5 -24 14 -7 11 9 24 17
30 17 11 0 53 43 53 55 0 5 6 16 14 24 15 18 51 87 60 113 4 14 10 16 30 8 21
-8 30 -5 54 19 l28 29 35 -19 c25 -13 56 -18 117 -19 69 0 90 4 130 25 73 38
121 90 122 132 1 11 19 26 49 40 46 22 48 24 60 85 10 54 10 70 -3 107 -9 24
-16 56 -16 72 0 43 -17 69 -81 124 -32 28 -66 57 -76 66 -22 20 -73 33 -73 20
0 -6 5 -33 11 -61 24 -112 -20 -180 -118 -180 -84 0 -122 49 -124 161 -2 90
65 248 113 264 9 3 23 17 32 30 9 14 22 25 29 25 7 0 31 8 53 19 60 28 194 22
304 -13 213 -70 289 -133 349 -291 43 -114 43 -259 2 -350 -5 -11 -12 -31 -15
-45 -12 -57 -95 -174 -168 -238 -40 -35 -97 -85 -126 -110 -29 -26 -63 -58
-75 -71 -46 -51 -88 -91 -95 -92 -9 0 -156 -184 -183 -228 -10 -17 -19 -36
-19 -42 0 -5 -9 -20 -20 -32 -24 -25 -69 -118 -82 -167 -5 -19 -14 -51 -19
-70 -43 -146 -32 -438 20 -555 5 -11 19 -54 32 -95 12 -41 26 -82 30 -90 75
-153 113 -228 122 -239 6 -7 16 -21 22 -30 22 -37 89 -137 99 -147 6 -6 18
-22 26 -34 8 -12 42 -59 75 -104 65 -87 148 -208 179 -259 82 -140 116 -200
116 -209 0 -5 15 -42 33 -81 38 -82 65 -155 100 -277 48 -164 57 -223 53 -359
-3 -116 -14 -165 -57 -258 -10 -24 -23 -43 -27 -43 -5 0 -15 -11 -22 -25 -7
-14 -19 -25 -26 -25 -7 0 -17 -7 -22 -16 -11 -19 -90 -56 -96 -45 -9 15 -11
255 -3 340 7 66 6 82 -5 79 -7 -3 -15 -15 -18 -28 -18 -77 -50 26 -50 161 0
66 -2 77 -19 82 -14 3 -18 12 -16 41 2 20 0 36 -4 36 -11 0 -28 -62 -47 -170
-9 -52 -24 -110 -32 -130 -13 -31 -16 -33 -22 -15 -24 62 -36 125 -32 160 4
37 3 39 -13 25 -9 -8 -21 -24 -26 -37 -5 -13 -13 -23 -18 -23 -11 0 -52 126
-46 143 2 7 6 37 9 67 6 58 20 133 31 163 10 26 -6 21 -33 -10 l-23 -28 6 30
c21 104 28 156 27 205 -2 61 -20 157 -30 164 -4 2 -7 -48 -7 -112 l0 -117 -39
-70 c-21 -38 -53 -87 -72 -107 -48 -54 -59 -103 -57 -249 2 -132 16 -191 76
-334 28 -67 27 -98 -7 -140 -16 -20 -28 -26 -42 -21 -29 10 -114 91 -114 110
0 9 -4 16 -9 16 -12 0 -101 135 -101 154 0 8 -9 38 -20 66 -16 41 -20 74 -20
182 0 73 -2 144 -4 158 -20 101 -54 196 -106 299 -37 72 -70 151 -70 165 0 14
-45 127 -75 186 -12 25 -25 58 -29 73 -6 26 -57 142 -92 208 -7 14 -11 28 -9
31 3 3 -13 42 -35 86 -45 92 -47 102 -22 102 67 0 129 43 154 105 34 85 33
124 -4 195 -32 63 -70 93 -66 53 5 -56 -2 -71 -36 -83 -39 -12 -110 0 -154 27
-50 31 -92 77 -92 100 0 20 -4 23 -27 17 -17 -3 -23 -2 -16 3 7 5 13 38 15 78
l2 70 73 1 c82 1 89 6 123 81 13 29 19 65 19 111 0 84 -7 97 -45 88 -50 -12
-144 -11 -144 2 0 5 12 15 28 22 90 45 127 100 127 189 0 60 -11 71 -41 42
-28 -26 -84 -37 -95 -20 -19 30 -9 83 24 131 32 47 32 47 89 48 48 0 63 5 99
33 48 36 57 57 58 137 1 69 -15 130 -34 130 -8 0 -15 -6 -15 -13 0 -7 -14 -26
-30 -42 l-30 -29 -22 21 -21 21 22 87 c12 47 19 90 16 95 -3 5 -2 18 4 28 9
16 21 84 35 192 24 184 -26 369 -127 473 -15 15 -17 28 -13 65 4 26 8 74 11
107 2 33 11 89 19 124 12 50 13 76 4 120 -18 101 -53 139 -69 77 -9 -31 -34
-62 -61 -77 -28 -15 -74 25 -92 80 -29 90 -56 137 -109 196 -52 57 -54 63 -59
127 -5 54 -2 71 13 95 10 15 19 38 19 49 0 21 -1 21 -40 8 -23 -8 -52 -11 -66
-8 -15 4 -32 1 -42 -7 -29 -24 -62 -40 -71 -35 -5 3 -11 24 -14 47 -4 29 -16
53 -40 78 -19 20 -41 46 -49 58 -14 22 -15 20 -33 -40 -20 -66 -81 -139 -140
-166 -16 -7 -46 -22 -66 -32 -20 -11 -48 -19 -62 -19 -14 0 -29 -5 -32 -10 -4
-6 -11 -8 -16 -4 -5 3 -15 1 -22 -4 -16 -13 -57 -21 -135 -27 -35 -3 -73 -12
-85 -19 -12 -8 -40 -18 -62 -22 -51 -9 -90 -36 -120 -84 -20 -32 -31 -39 -70
-45 -26 -3 -67 -15 -92 -26 -24 -10 -54 -19 -64 -19 -22 0 -219 -64 -253 -82
-51 -27 -57 -61 -21 -118 18 -29 23 -45 16 -58 -12 -23 12 -111 44 -163 31
-49 42 -45 24 8 -7 21 -12 53 -10 72 1 19 -7 48 -19 68 -11 19 -20 38 -20 44
0 17 27 9 54 -16 18 -17 39 -25 62 -25 21 0 33 -4 29 -10 -3 -5 -17 -10 -30
-10 -46 0 -55 -10 -55 -57 0 -38 5 -50 33 -76 29 -27 30 -30 9 -24 -18 4 -22
2 -18 -10 3 -8 6 -17 6 -19 0 -2 15 -4 34 -4 18 0 39 -7 46 -15 10 -12 6 -13
-27 -8 l-38 5 40 -36 c42 -37 99 -53 152 -43 44 8 101 32 121 50 10 9 26 17
34 17 9 0 18 6 21 14 3 7 18 17 34 21 34 8 53 23 53 41 0 19 -12 18 -36 -3
-24 -23 -74 -27 -74 -7 0 8 7 14 16 14 22 0 147 61 157 77 4 7 18 13 30 13 17
0 19 -2 7 -10 -24 -15 -5 -22 24 -8 19 8 26 17 23 30 -6 23 18 24 27 2 5 -13
9 -14 21 -4 19 16 81 -6 106 -39 27 -33 24 -49 -4 -23 -29 28 -82 29 -145 3
-26 -11 -55 -22 -65 -25 -21 -7 -42 -49 -34 -70 5 -12 21 -16 61 -16 30 0 57
-4 60 -9 6 -9 -79 -25 -100 -20 -23 7 -94 -14 -94 -27 0 -11 4 -12 19 -3 22
14 55 5 48 -14 -2 -6 -16 -12 -30 -12 -16 1 -27 -5 -27 -12 0 -7 -8 -13 -17
-13 -15 0 -16 -2 -3 -10 10 -6 11 -10 3 -10 -19 0 -28 4 -26 12 1 3 -5 5 -14
4 -9 -2 -19 -8 -21 -14 -4 -14 -112 -16 -112 -2 0 5 -10 15 -22 21 -17 9 -24
9 -33 -5 -7 -9 -17 -16 -23 -16 -6 0 -16 -8 -22 -17 -9 -16 -13 -15 -43 17
l-32 36 -25 -24 -24 -23 28 11 c50 19 51 -9 2 -55 -23 -23 -45 -49 -49 -58 -3
-9 -11 -17 -17 -17 -5 0 -10 -4 -10 -10 0 -5 6 -10 14 -10 8 0 17 -11 20 -25
7 -27 54 -75 73 -75 17 0 24 -15 37 -73 6 -27 15 -50 20 -51 7 -1 39 49 49 79
3 6 16 3 35 -8 16 -9 37 -15 45 -11 9 3 23 -6 37 -23 21 -27 22 -27 36 -9 8
11 14 26 14 34 0 8 10 41 21 73 l21 58 62 -1 c34 0 71 4 81 9 11 6 37 16 58
23 37 11 40 10 69 -17 85 -80 75 -202 -21 -247 -39 -18 -64 -21 -171 -20 -69
0 -155 4 -192 8 -63 7 -68 6 -68 -12 0 -11 7 -25 16 -33 15 -12 54 -81 54 -94
0 -4 -15 -3 -32 1 -38 8 -309 8 -383 -1 -133 -16 -200 -40 -242 -87 -24 -28
-35 -33 -71 -33 -36 0 -46 5 -65 30 -34 44 -50 91 -43 125 7 35 -2 38 -32 10
l-22 -20 -38 37 c-42 40 -148 169 -196 237 -16 23 -32 43 -37 44 -5 2 -9 7 -9
11 0 5 -25 49 -55 99 -134 223 -148 323 -60 437 25 32 45 67 45 78 0 11 12 35
26 54 23 30 25 41 20 86 -7 71 -7 66 0 125 7 53 7 53 -37 92 -24 22 -51 40
-59 41 -8 1 -20 3 -26 3 -6 1 -18 7 -27 14 -9 8 -24 12 -34 9 -16 -4 -15 -6 4
-12 13 -4 20 -11 17 -16 -3 -5 0 -9 5 -9 6 0 11 -8 11 -17 1 -15 3 -14 13 4
13 24 23 21 83 -25 24 -19 31 -31 32 -65 2 -35 -3 -48 -28 -74 -32 -34 -67
-45 -56 -18 6 18 5 18 -29 5 -15 -6 -24 -6 -20 -1 3 5 1 12 -5 16 -17 10 -11
25 8 19 15 -5 15 -4 -2 10 -10 8 -15 19 -11 25 3 6 -1 11 -9 11 -9 0 -16 -4
-16 -9 0 -6 -15 -7 -34 -4 -28 4 -36 1 -55 -25 -13 -19 -21 -45 -21 -72 0 -47
-14 -80 -35 -80 -21 0 -29 37 -26 114 2 38 -4 98 -13 135 -8 36 -18 78 -21 92
-4 23 -12 28 -49 33 -33 5 -55 17 -81 43 -41 41 -62 37 -23 -5 32 -35 38 -59
22 -97 -7 -16 -14 -25 -14 -20 -6 53 -11 70 -21 79 -9 8 -10 3 -6 -21 4 -20 2
-33 -4 -33 -6 0 -8 -4 -5 -9 8 -13 -28 -20 -48 -9 -9 5 -21 6 -26 3 -6 -4 -10
8 -10 29 0 24 -5 36 -14 36 -11 0 -13 -10 -9 -40 4 -27 2 -40 -6 -40 -20 0
-41 -62 -28 -85 6 -11 12 -41 13 -67 1 -30 11 -59 28 -84 30 -44 32 -62 11
-90 -14 -17 -16 -18 -25 -2 -23 38 -132 46 -161 12 -7 -9 -17 -11 -28 -5 -9 5
-43 8 -74 6 -44 -2 -68 -10 -99 -31 -22 -16 -35 -30 -28 -32 6 -2 22 6 35 18
17 16 40 23 84 26 39 4 61 2 61 -5 0 -6 8 -7 17 -4 13 5 15 2 10 -11 -4 -10
-3 -15 3 -11 6 3 10 14 10 22 0 14 4 12 21 -6 12 -13 19 -30 16 -42 -3 -10 0
-19 6 -19 7 0 4 -7 -5 -14 -10 -7 -18 -19 -18 -25 0 -7 -5 -9 -10 -6 -6 3 -10
1 -10 -4 0 -6 -9 -11 -20 -11 -11 0 -23 -7 -26 -15 -4 -8 -12 -15 -19 -15 -16
0 -38 -51 -33 -81 2 -12 19 -35 39 -51 35 -28 38 -29 97 -19 79 13 117 1 160
-46 37 -42 45 -65 40 -114 -2 -26 -8 -35 -25 -37 -51 -7 -94 -112 -58 -142 22
-18 18 -36 -11 -59 -30 -24 -27 -26 11 -9 22 10 30 25 26 50 -1 10 48 22 57
14 3 -4 0 -12 -8 -17 -13 -9 -13 -10 0 -8 8 0 25 -2 38 -6 19 -6 22 -12 17
-34 -4 -14 -8 -33 -10 -41 -1 -8 -8 -14 -14 -13 -19 5 -12 -16 10 -28 21 -11
87 -8 119 5 12 5 21 -13 43 -81 31 -102 32 -103 13 -103 -14 0 -49 -42 -74
-89 -11 -21 -17 -91 -8 -91 2 0 25 9 51 20 26 11 59 20 75 20 27 0 56 -21 44
-33 -3 -3 -1 -15 5 -26 9 -16 7 -29 -9 -61 -11 -22 -18 -45 -14 -51 3 -6 -3
-13 -14 -16 -21 -5 -36 -70 -25 -111 5 -20 23 -31 23 -14 0 12 60 42 74 36 8
-3 17 -1 21 5 19 32 48 -18 59 -104 5 -45 3 -53 -20 -75 -89 -86 -86 -82 -80
-124 8 -49 34 -94 59 -102 24 -8 37 11 37 54 0 17 4 32 8 32 5 0 7 -13 4 -29
-2 -17 3 -44 12 -62 9 -18 16 -40 16 -51 0 -10 5 -18 11 -18 6 0 9 15 7 37 -2
30 1 38 15 41 15 3 18 0 13 -16 -4 -11 -2 -23 4 -27 5 -3 10 -16 10 -29 0 -22
17 -46 32 -46 4 0 7 8 6 18 -1 9 0 28 0 42 2 24 2 24 24 -7 13 -18 28 -33 34
-33 6 0 20 -11 32 -25 l21 -24 -46 -46 c-78 -78 -109 -98 -143 -91 -22 4 -30
2 -30 -9 0 -17 4 -17 115 -17 87 0 172 28 209 71 11 11 23 21 27 21 4 0 18 10
31 23 13 12 37 33 53 47 17 14 45 45 63 70 29 41 132 139 132 126 0 -13 -40
-69 -59 -82 -11 -8 -21 -21 -21 -28 0 -7 -29 -43 -65 -82 -35 -38 -64 -74 -65
-80 0 -6 -27 -28 -60 -48 -33 -21 -60 -41 -60 -45 0 -15 -94 -35 -155 -34
-112 2 -145 6 -145 14 0 5 -7 9 -15 9 -9 0 -18 7 -21 15 -4 9 -14 13 -28 10
-16 -4 -24 1 -33 21 -10 22 -10 25 3 20 7 -3 14 -1 14 4 0 6 -4 10 -8 10 -5 0
-14 11 -20 25 -6 14 -16 25 -21 25 -21 0 -20 -26 6 -155 11 -57 99 -153 158
-172 17 -5 29 -13 28 -17 -2 -11 -82 -96 -90 -96 -3 0 -17 -11 -32 -25 -56
-54 -68 -64 -126 -100 -33 -21 -62 -41 -65 -44 -7 -8 -41 -29 -70 -43 -14 -7
-58 -34 -97 -60 -40 -26 -84 -50 -98 -54 -43 -11 -95 4 -107 32 -6 13 -17 24
-25 24 -18 0 -93 74 -93 92 0 38 -58 50 -99 22 -17 -13 -20 -19 -10 -25 11 -6
11 -12 -1 -33 -7 -14 -17 -26 -22 -26 -5 0 -6 5 -3 10 3 6 -4 10 -17 9 -13 0
-17 -3 -10 -6 10 -4 10 -8 0 -21 -11 -13 -11 -14 1 -7 10 5 12 4 7 -3 -10 -16
-63 -15 -73 1 -11 18 -41 28 -48 17 -4 -6 1 -10 10 -10 24 0 29 -25 10 -54
-27 -41 7 -78 95 -101 43 -11 150 -59 150 -67 0 -15 -54 -21 -84 -8 -138 56
-209 64 -263 28 -23 -16 -33 -30 -31 -45 3 -22 -27 -63 -46 -63 -16 -1 -66
-75 -66 -97 1 -13 5 -10 17 12 21 40 51 72 90 96 39 25 110 29 123 9 12 -18 7
-36 -9 -32 -6 1 -11 -5 -11 -14 0 -13 3 -14 13 -5 21 17 26 3 10 -29 -15 -31
-68 -50 -95 -35 -11 7 -11 5 0 -6 7 -8 17 -14 22 -14 5 0 19 -16 33 -35 22
-32 27 -35 69 -33 48 3 118 -20 118 -37 0 -15 -49 -90 -58 -90 -5 0 -19 -19
-32 -42 -26 -46 -27 -89 -4 -125 8 -12 14 -42 15 -65 1 -70 32 -133 77 -157
29 -16 29 2 -2 26 -44 35 -58 77 -53 161 6 89 15 121 29 100 7 -10 11 -10 15
0 3 7 23 12 47 12 36 0 47 -5 75 -37 30 -34 31 -38 16 -49 -9 -7 -14 -18 -10
-23 3 -6 -1 -18 -9 -27 -9 -8 -16 -20 -16 -25 0 -17 19 -9 30 12 7 13 17 18
27 14 11 -3 29 6 50 27 33 32 42 65 23 84 -14 14 13 103 40 132 30 32 108 31
138 -1 12 -13 22 -30 22 -38 0 -8 11 -26 25 -41 24 -26 27 -26 57 -14 39 17
48 35 14 29 -22 -5 -28 1 -51 50 -19 42 -23 62 -16 79 17 45 95 96 138 90 12
-2 33 -19 48 -38 l26 -34 -33 -2 c-18 -1 -46 -1 -61 0 -21 2 -37 -6 -58 -29
-29 -31 -30 -33 -15 -68 9 -21 15 -28 15 -17 1 12 6 16 16 12 9 -3 15 0 15 9
0 8 -8 15 -17 15 -13 0 -11 6 11 29 22 23 33 28 50 22 11 -5 27 -6 34 -4 12 5
15 -6 13 -43 -2 -14 5 -23 19 -27 18 -5 21 -11 16 -34 -3 -15 -2 -35 4 -43 7
-11 10 -4 10 27 0 24 7 48 16 57 26 27 28 77 5 123 -26 49 -21 84 16 113 33
26 95 42 129 34 23 -6 25 -10 20 -38 -12 -57 37 -116 96 -116 17 0 19 4 13 28
-8 29 -7 90 1 104 10 15 25 -3 22 -27 -4 -31 21 -74 54 -91 54 -28 58 -22 53
65 l-5 78 25 -5 c21 -4 25 -10 25 -38 0 -18 5 -36 10 -39 6 -3 10 -2 10 3 0 5
20 12 45 15 24 4 72 14 106 24 96 28 130 68 154 185 6 29 40 46 70 34 22 -8
19 -63 -5 -83 -11 -10 -20 -21 -20 -26 0 -12 50 -55 72 -63 17 -5 18 -12 13
-59 -4 -31 -2 -84 6 -127 12 -68 16 -76 66 -126 52 -51 55 -52 112 -52 31 0
78 7 102 15 45 16 119 69 119 85 0 5 -15 12 -34 15 -50 10 -104 59 -112 101
-7 41 8 84 31 84 8 0 15 7 15 15 0 21 28 19 93 -6 66 -25 143 -91 187 -159 18
-27 37 -50 43 -50 5 0 2 -9 -8 -20 -23 -25 -16 -101 15 -152 23 -40 95 -77
152 -79 55 -1 154 15 141 24 -7 4 -10 14 -6 22 4 12 -5 15 -41 15 -65 0 -95
34 -96 106 0 54 21 84 67 98 34 11 41 55 33 211 -3 77 -3 144 1 149 4 5 5 15
2 22 -3 9 2 14 17 14 12 0 18 4 15 10 -4 6 -11 8 -16 4 -11 -7 -7 71 4 83 4 3
7 12 7 20 0 20 41 63 61 63 11 0 19 9 21 23 2 14 10 22 25 23 14 1 20 -3 16
-12 -3 -8 -8 -14 -12 -14 -6 0 -11 -11 -47 -100 -24 -61 -35 -231 -23 -358 6
-63 9 -129 6 -148 -5 -27 -1 -40 19 -61 13 -14 24 -30 24 -34 0 -9 40 -33 45
-27 2 2 -6 44 -16 93 -21 96 -32 356 -15 365 5 3 10 -60 12 -140 2 -89 10
-174 20 -220 9 -41 16 -88 16 -103 -1 -18 5 -30 16 -34 9 -4 29 -15 44 -26 19
-14 34 -18 53 -13 21 5 33 2 51 -15 29 -27 31 -59 4 -66 -24 -6 -26 -38 -3
-47 36 -14 131 -18 165 -7 35 11 56 45 37 56 -11 7 -6 48 7 52 5 2 34 -21 65
-49 31 -29 77 -72 102 -96 37 -34 48 -53 58 -97 26 -116 -31 -135 -203 -70
-51 19 -97 35 -101 35 -5 0 -23 6 -40 14 -56 25 -256 41 -562 47 -146 3 -188
13 -220 56 -28 36 -12 98 37 145 40 38 35 48 -22 48 -181 0 -281 -101 -233
-235 10 -27 27 -62 37 -77 31 -47 1 -62 -67 -33 -46 19 -69 50 -87 114 -7 28
-17 51 -20 51 -16 0 -40 -39 -49 -80 -23 -99 -7 -171 45 -202 40 -24 43 -34
10 -42 -50 -12 -68 -106 -37 -189 15 -38 33 -33 56 16 27 57 51 57 47 -1 -2
-23 4 -86 13 -140 10 -53 19 -116 20 -139 3 -42 2 -43 -26 -43 -16 0 -47 9
-69 20 -22 11 -49 20 -60 20 -12 0 -35 8 -53 17 -18 9 -37 16 -44 15 -7 -2
-29 4 -49 13 -20 8 -45 15 -55 15 -11 0 -19 4 -19 8 0 14 -160 36 -275 37
-147 1 -150 1 -181 28 -26 22 -26 24 -10 48 22 35 3 79 -36 79 -17 0 -28 6
-31 18 -4 13 -5 11 -6 -5 0 -13 -7 -23 -13 -23 -9 0 -8 -4 2 -10 13 -8 13 -10
-2 -10 -9 0 -20 4 -23 10 -3 5 -17 10 -31 10 -29 0 -31 10 -4 33 22 19 25 33
10 42 -5 3 -10 -2 -10 -13 0 -15 -5 -18 -24 -15 -18 4 -29 -2 -41 -21 l-17
-26 -40 35 c-30 25 -49 34 -74 33 -19 -1 -42 6 -52 15 -10 10 -35 17 -55 17
-20 0 -37 5 -37 11 0 12 -35 3 -62 -16 -14 -9 -4 -11 52 -11 58 1 70 -2 74
-16 3 -12 15 -18 38 -19 31 -1 31 -2 8 -9 l-25 -7 25 -11 c14 -6 19 -11 12
-11 -8 -1 -11 -8 -7 -20 6 -21 -18 -46 -35 -36 -6 4 -9 13 -6 21 7 19 -13 29
-27 14 -9 -9 -9 -11 -1 -7 7 4 14 -3 17 -18 5 -31 -9 -43 -18 -16 -4 12 -12
18 -21 14 -8 -3 -14 1 -14 10 0 8 -7 17 -15 21 -11 4 -13 1 -6 -12 32 -63 34
-73 23 -84 -16 -16 -15 -68 0 -72 7 -3 25 -7 40 -10 15 -3 40 -17 55 -31 l28
-26 -25 -17 c-44 -30 -70 -61 -70 -82 0 -11 -14 -50 -31 -86 -33 -73 -33 -101
1 -34 11 22 28 44 36 47 11 4 12 8 4 13 -7 5 -6 11 6 21 16 12 17 12 9 -1 -4
-8 2 -5 15 8 12 13 25 21 28 17 4 -3 0 -10 -8 -15 -24 -16 -6 -11 30 6 31 16
34 16 46 -1 10 -14 11 -22 3 -32 -9 -10 -8 -13 5 -13 21 0 20 -9 -4 -30 -12
-11 -17 -21 -11 -24 19 -12 -1 -37 -41 -53 -30 -12 -36 -18 -27 -27 8 -8 13
-8 16 1 3 9 11 8 29 -3 14 -10 34 -14 48 -10 27 7 86 63 86 83 0 8 12 13 30
13 58 0 63 -77 9 -126 -23 -21 -24 -36 -3 -79 9 -21 28 -39 47 -46 18 -7 36
-15 40 -17 4 -2 5 7 2 21 -4 14 -2 34 4 44 10 17 10 17 11 1 0 -10 5 -18 11
-18 5 0 7 5 4 10 -3 6 -1 10 6 10 10 0 10 3 2 11 -12 12 -6 39 11 51 20 14 56
9 56 -7 0 -10 10 -15 26 -15 26 0 26 -1 22 -55 l-5 -56 31 3 c29 3 31 1 27
-27 -11 -73 4 -125 60 -209 24 -36 47 -66 50 -66 4 0 12 30 18 68 13 72 37
132 55 132 6 0 22 3 36 7 25 7 25 6 7 -20 -17 -26 -17 -27 12 -42 39 -20 61
-19 91 5 36 28 169 29 194 1 45 -49 -23 -83 -78 -40 -15 12 -29 19 -32 16 -12
-11 41 -99 76 -127 49 -39 102 -40 154 -5 20 14 40 25 44 25 4 0 26 21 49 46
38 43 63 51 63 21 0 -21 111 -124 165 -153 45 -24 59 -27 140 -25 112 2 139
17 232 125 25 28 25 29 -30 26 -48 -2 -107 17 -131 43 -32 33 -33 105 -3 171
16 34 32 56 42 56 24 0 55 -19 55 -34 0 -7 14 -29 31 -49 41 -49 91 -51 138
-8 17 16 31 33 31 38 0 6 -17 15 -38 21 -29 9 -41 19 -50 45 -16 46 -16 52 13
110 44 87 105 122 133 76 7 -11 16 -53 19 -92 6 -80 15 -97 48 -97 34 0 95
-75 95 -116 0 -37 -14 -51 -58 -60 -25 -5 -39 -1 -68 21 -19 15 -38 25 -41 22
-3 -4 -8 -26 -10 -50 -6 -49 10 -88 51 -126 23 -22 30 -23 93 -17 39 4 83 16
106 29 l38 21 27 -34 c48 -61 79 -155 87 -267 8 -119 0 -155 -50 -203 -29 -28
-44 -34 -90 -38 -55 -4 -56 -5 -38 -25 23 -26 74 -47 114 -47 50 0 130 55 144
99 3 12 10 21 15 21 5 0 12 27 16 60 6 57 23 89 32 62 7 -23 87 -69 140 -82
52 -12 136 -7 157 10 6 4 26 10 46 14 33 6 40 3 63 -25 14 -17 26 -37 26 -44
0 -13 -27 -47 -107 -133 -24 -25 -46 -55 -49 -66 -4 -12 -24 -41 -44 -66 -32
-38 -62 -84 -135 -208 -28 -48 -50 -73 -80 -96 l-34 -26 -63 36 c-35 20 -67
42 -73 48 -5 6 -27 19 -49 29 -35 16 -40 16 -62 2 -24 -16 -33 -45 -13 -45 6
0 9 -6 6 -12 -2 -7 2 -17 9 -23 11 -8 10 -19 -3 -58 -16 -48 -39 -70 -52 -50
-9 14 -85 28 -76 14 3 -6 13 -11 21 -11 10 0 14 -13 14 -49 0 -40 5 -53 23
-68 13 -10 26 -27 31 -38 5 -14 9 -16 15 -7 6 10 11 10 21 -3 10 -12 10 -18
-1 -32 -13 -16 -12 -17 4 -4 15 12 19 12 31 -4 11 -15 12 -29 7 -66 -1 -3 -14
-20 -31 -39 -26 -30 -41 -36 -87 -39 -7 -1 -13 -6 -13 -12 0 -6 9 -8 20 -4 12
4 28 1 36 -6 26 -21 104 -11 143 18 18 14 36 34 39 45 6 23 44 24 65 1 8 -10
18 -43 22 -75 5 -43 14 -62 35 -83 31 -30 30 -67 -3 -90 -11 -8 -18 -17 -15
-21 10 -10 43 19 46 41 2 11 12 28 23 37 11 10 18 22 15 27 -9 14 4 41 20 41
17 0 18 12 2 28 -10 10 -10 15 1 21 8 5 11 16 7 26 -5 15 -1 17 28 13 20 -2
32 0 29 6 -10 16 51 -4 65 -21 14 -20 15 -34 3 -85 -10 -43 0 -48 37 -22 29
20 45 50 51 99 6 39 7 40 49 43 24 2 49 -1 55 -6 19 -15 117 -26 117 -13 0 6
-4 11 -9 11 -15 0 -22 32 -11 45 8 10 6 13 -7 11 -12 0 -19 7 -21 22 -2 14 2
22 11 22 9 0 17 6 20 13 3 9 9 9 26 -1 20 -12 21 -11 12 6 -11 21 -40 47 -45
41 -21 -24 -56 -94 -57 -111 0 -18 -4 -14 -16 15 -13 32 -14 44 -3 75 28 84
149 124 205 67 36 -35 31 -43 -25 -37 -58 5 -68 -12 -25 -44 31 -23 49 -84 40
-133 -17 -89 -17 -85 -1 -72 8 7 18 37 22 68 4 36 14 63 29 79 37 40 39 70 9
131 -15 32 -35 58 -49 63 -33 13 -39 29 -19 51 25 28 47 23 68 -16 26 -48 88
-87 133 -83 43 4 54 23 21 39 -23 10 -63 57 -56 64 2 2 25 -3 51 -12 42 -14
52 -14 75 -2 15 8 30 18 34 24 10 13 10 55 1 56 -5 0 -20 2 -35 3 -15 1 -36
10 -48 21 -19 17 -21 26 -15 75 16 130 148 284 271 316 75 19 98 41 118 113
21 75 21 92 -2 66 -21 -25 -87 -56 -105 -50 -31 12 -38 43 -26 116 8 54 8 78
-1 98 -10 22 -9 27 7 36 10 5 34 27 54 48 47 49 57 111 33 197 -9 33 -20 60
-25 60 -4 0 -15 -21 -23 -48 -26 -77 -61 -122 -96 -122 -35 0 -37 7 -9 54 31
54 34 116 8 173 l-22 48 -8 -55 c-5 -41 -14 -60 -34 -77 -43 -37 -54 -32 -95
41 -27 49 -41 176 -19 176 13 1 47 32 77 71 19 25 34 121 22 133 -8 8 -16 5
-28 -9 -36 -43 -59 -56 -86 -49 -22 5 -26 12 -26 43 0 21 9 71 20 112 11 41
28 103 37 139 23 93 46 117 59 63 18 -70 150 -278 202 -317 15 -11 38 -31 50
-43 12 -13 29 -23 37 -23 10 0 15 -10 15 -28 0 -52 41 -177 93 -282 46 -93 52
-112 52 -167 0 -35 3 -63 6 -63 16 0 53 112 61 185 10 89 17 102 46 86 58 -31
76 -97 47 -168 -17 -40 -20 -79 -6 -87 14 -9 107 80 121 116 14 37 26 64 65
153 22 49 26 69 21 112 l-6 52 37 6 c59 9 168 55 202 84 17 14 47 39 67 55 55
45 126 163 145 242 7 27 17 60 24 74 7 14 16 50 20 80 4 30 12 64 18 75 5 11
11 82 13 158 3 137 3 140 30 168 16 16 46 34 68 40 69 19 90 41 125 135 7 17
25 45 42 63 41 45 57 79 65 140 4 28 11 54 15 57 5 3 9 20 9 38 0 19 12 54 26
80 22 40 26 61 29 144 1 53 -2 123 -9 155 l-11 57 -30 -76 c-19 -49 -47 -96
-79 -132 -46 -53 -68 -67 -166 -108 -25 -10 -53 -26 -62 -35 -10 -10 -23 -21
-30 -26 -26 -16 -99 -139 -115 -193 -15 -52 -16 -54 -27 -30 -6 14 -14 27 -18
31 -4 3 -19 34 -34 69 -14 34 -36 84 -49 109 -72 141 -141 384 -151 536 -11
176 20 277 112 368 50 49 63 57 108 62 117 14 191 -9 254 -78 33 -35 35 -101
4 -145 -38 -52 -73 -65 -159 -57 -42 4 -73 3 -73 -2 0 -10 86 -47 135 -58 84
-19 133 -17 187 9 29 13 60 31 68 38 50 43 68 127 49 224 -11 54 -21 73 -61
118 -27 30 -57 58 -68 61 -29 9 -25 21 25 68 24 24 56 67 71 97 14 30 37 78
51 105 28 54 56 215 42 237 -7 10 -9 10 -9 -2 0 -24 -106 -176 -154 -220 -45
-41 -111 -90 -124 -90 -4 0 -18 -9 -32 -20 -14 -11 -34 -20 -45 -20 -12 0 -26
-5 -32 -11 -7 -7 -19 -9 -28 -5 -13 5 -5 17 39 61 30 30 58 55 63 55 12 0 113
145 126 182 7 18 14 35 18 38 10 10 38 95 40 125 5 78 -8 85 -39 21 -12 -24
-29 -49 -37 -56 -8 -7 -15 -17 -15 -23 0 -23 -120 -140 -178 -172 -53 -30
-140 -65 -161 -65 -7 0 34 46 93 103 58 56 106 107 106 112 0 6 12 23 28 40
15 16 39 52 53 80 14 27 37 70 50 95 26 50 41 180 20 180 -6 0 -11 -7 -11 -15
0 -8 -13 -36 -30 -62 -16 -26 -30 -52 -30 -58 0 -14 -128 -145 -141 -145 -5 0
-18 -9 -28 -19 -21 -21 -124 -75 -276 -146 -55 -25 -107 -50 -115 -55 -8 -6
-31 -19 -51 -29 -20 -11 -39 -27 -43 -36 -3 -9 -10 -14 -15 -10 -25 15 62 155
96 155 7 0 13 5 13 10 0 10 155 87 240 120 19 7 42 19 51 27 8 7 21 13 29 13
16 0 77 37 110 67 14 13 28 23 32 23 5 0 8 4 8 10 0 5 11 26 25 46 37 55 31
71 -12 29 -20 -19 -41 -35 -47 -35 -7 0 -28 -8 -47 -18 -55 -28 -155 -50 -252
-56 -48 -3 -105 -10 -125 -17 -94 -29 -172 -64 -232 -104 -74 -48 -180 -148
-180 -168 0 -7 -12 -24 -26 -38 -14 -13 -30 -34 -35 -46 -16 -44 -27 -23 -22
45 11 138 78 324 145 396 10 11 18 25 18 31 0 16 180 190 250 242 106 78 179
111 283 127 101 15 122 25 157 69 16 21 30 27 58 27 20 0 50 7 66 15 15 8 37
15 47 15 24 0 105 42 140 72 14 13 33 43 41 68 18 50 32 120 24 120 -9 0 -56
-54 -56 -65 -1 -14 -108 -77 -120 -70 -13 8 -13 35 0 35 16 0 81 149 87 200 4
36 1 55 -13 78 -21 37 -34 33 -34 -12 0 -54 -17 -86 -98 -187 -13 -16 -29 -29
-36 -29 -7 0 -17 -5 -23 -11 -12 -12 -141 -69 -155 -69 -4 0 -8 7 -8 15 0 8 4
15 9 15 15 0 89 227 106 323 8 50 -12 229 -32 281 -9 23 -29 60 -45 84 -15 24
-28 46 -28 51 0 4 -20 29 -45 54 -42 44 -59 87 -35 87 6 0 18 16 27 35 15 32
15 39 0 95 -23 80 -22 90 13 136 16 21 30 44 30 49 0 6 13 24 29 41 16 16 50
73 77 125 44 87 48 100 50 174 2 72 -7 115 -28 140 -4 5 -8 -18 -8 -50z
m-2319 -261 c-11 -15 -21 -37 -21 -50 0 -12 -4 -26 -10 -29 -6 -4 -10 7 -10
26 0 22 9 42 27 61 33 34 43 29 14 -8z m180 -107 c-13 -13 -15 15 -3 53 7 24
7 23 10 -9 2 -18 -1 -38 -7 -44z m-2705 37 c-3 -9 -6 -24 -6 -34 0 -10 -9 -22
-21 -25 -12 -4 -18 -12 -15 -21 6 -15 -29 -38 -47 -30 -7 2 -4 5 6 5 9 1 17 8
17 16 0 17 -21 20 -36 5 -5 -5 -29 -6 -59 -1 l-50 9 48 1 c26 0 55 5 65 10 9
5 25 12 35 15 9 3 20 19 23 36 5 21 12 30 26 30 14 0 18 -5 14 -16z m2520 -60
c-3 -8 -10 -14 -16 -14 -14 0 -13 26 3 51 12 20 12 20 15 -1 2 -12 1 -28 -2
-36z m49 17 c-9 -16 -25 -3 -18 15 4 10 9 12 15 6 6 -6 7 -15 3 -21z m1862 -8
c3 -7 -14 -21 -37 -33 -22 -11 -46 -32 -52 -45 -11 -25 -28 -34 -28 -15 0 13
27 58 54 88 21 23 56 26 63 5z m-1674 -40 c-3 -19 -22 -50 -45 -75 l-40 -43
26 41 c13 23 32 59 40 79 19 44 26 43 19 -2z m-2978 -13 c3 -5 -1 -10 -10 -10
-9 0 -13 5 -10 10 3 6 8 10 10 10 2 0 7 -4 10 -10z m4897 -5 c1 -5 -16 -20
-37 -31 -21 -12 -47 -36 -57 -53 -24 -38 -43 -41 -34 -5 10 37 36 74 52 74 8
0 14 4 14 9 0 19 60 24 62 6z m-371 -86 c-5 -13 -10 -19 -10 -12 -1 15 10 45
15 40 3 -2 0 -15 -5 -28z m-2376 -17 c32 -18 49 -21 85 -16 25 3 56 13 68 21
13 8 27 12 30 8 10 -10 -40 -45 -65 -45 -30 0 -40 -20 -14 -27 48 -12 15 -23
-70 -23 -90 0 -91 0 -86 23 4 12 2 29 -3 37 -7 10 -10 11 -10 3 0 -7 -7 -13
-16 -13 -10 0 -14 6 -11 14 9 24 -4 26 -32 7 -21 -15 -28 -16 -38 -6 -7 7 -17
15 -24 17 -32 11 7 23 73 23 57 -1 82 -6 113 -23z m-1679 -34 c22 -43 33 -50
72 -43 33 6 45 -8 16 -19 -33 -13 -53 -5 -88 34 -36 40 -45 60 -26 60 5 0 17
-15 26 -32z m1361 -14 c-3 -3 -12 -4 -19 -1 -8 3 -5 6 6 6 11 1 17 -2 13 -5z
m173 -13 c0 -11 -61 -43 -68 -37 -7 8 22 33 44 39 10 2 20 5 22 6 1 0 2 -3 2
-8z m-270 -10 c-20 -12 -90 -25 -90 -17 0 11 43 25 75 25 22 0 26 -2 15 -8z
m-160 -51 c-28 -22 -40 -25 -40 -10 0 11 30 29 50 29 10 1 6 -6 -10 -19z m858
-48 c6 -18 -15 -14 -22 4 -4 10 -1 14 6 12 6 -2 14 -10 16 -16z m-2522 -28 c3
-13 4 -31 0 -39 -8 -22 -28 -19 -21 4 3 10 1 30 -4 44 -8 21 -7 25 5 20 8 -3
17 -16 20 -29z m2508 -36 c-12 -19 -32 -5 -42 28 l-11 36 29 -28 c15 -16 26
-32 24 -36z m34 6 c4 -33 -11 -24 -23 15 -5 17 -4 22 6 19 8 -3 15 -18 17 -34z
m672 -79 c0 -8 -4 -15 -10 -15 -5 0 -10 7 -10 15 0 8 5 15 10 15 6 0 10 -7 10
-15z m-3270 -9 c0 -3 -4 -8 -10 -11 -5 -3 -10 -1 -10 4 0 6 5 11 10 11 6 0 10
-2 10 -4z m3160 -161 c-12 -82 -8 -115 9 -86 11 17 2 -85 -11 -127 -6 -21 -15
-31 -23 -28 -20 7 -28 -37 -9 -51 18 -13 12 -43 -9 -43 -7 0 -13 -9 -14 -20
-1 -11 2 -18 7 -15 11 7 0 -66 -13 -82 -5 -7 -9 -31 -9 -53 1 -28 -3 -40 -14
-40 -8 0 -14 6 -14 13 0 12 22 87 35 120 5 11 3 17 -6 17 -8 0 -25 -23 -39
-52 -14 -28 -40 -67 -57 -86 -18 -19 -33 -39 -33 -43 0 -13 -71 -81 -120 -114
-25 -17 -72 -44 -105 -59 -33 -16 -69 -33 -80 -39 -19 -10 -19 -9 -4 14 9 13
26 25 38 27 11 2 21 8 21 13 0 5 6 9 13 9 8 0 49 35 93 78 105 103 155 169
208 275 16 32 37 62 47 68 10 5 16 16 13 24 -3 8 1 36 9 62 29 95 37 129 42
181 3 30 7 58 10 62 3 5 6 25 7 45 1 23 5 32 11 26 6 -6 5 -41 -3 -96z m554
83 c3 -13 6 -32 6 -43 0 -10 14 -34 32 -52 18 -18 27 -33 20 -33 -6 0 -29 18
-52 41 -40 41 -58 79 -45 98 11 19 32 12 39 -11z m-1120 -23 c3 -8 1 -15 -4
-15 -6 0 -10 7 -10 15 0 8 2 15 4 15 2 0 6 -7 10 -15z m-76 -95 c9 -127 -28
-153 -238 -169 -189 -15 -326 -20 -337 -12 -5 3 -10 16 -10 29 -2 25 18 29 37
7 18 -22 51 -19 57 5 7 25 22 26 38 3 12 -16 15 -16 33 7 l21 25 28 -27 27
-28 28 27 28 27 23 -22 c32 -31 74 -28 173 8 32 12 64 87 64 150 0 75 22 51
28 -30z m-522 55 c-22 -17 -56 -20 -56 -6 0 10 23 18 55 20 20 0 20 0 1 -14z
m614 -49 c0 -52 -6 -43 -13 18 -3 30 -1 43 4 35 5 -8 9 -32 9 -53z m-680 40
c0 -2 -7 -6 -15 -10 -8 -3 -15 -1 -15 4 0 6 7 10 15 10 8 0 15 -2 15 -4z m-60
-15 c0 -10 -57 -8 -67 3 -3 3 10 6 30 6 21 0 37 -4 37 -9z m403 -98 c-13 -2
-23 -9 -23 -14 0 -5 -5 -9 -11 -9 -8 0 -8 5 1 15 7 8 22 14 34 14 20 -2 20 -2
-1 -6z m-363 -111 c0 -8 -9 -12 -22 -10 -22 3 -43 51 -31 71 7 12 53 -41 53
-61z m-1280 -86 c0 -8 7 -16 15 -20 13 -5 23 -56 11 -56 -2 0 -11 -3 -19 -6
-17 -6 -43 57 -33 81 7 19 26 19 26 1z m2908 -141 c0 -16 -2 -15 -8 5 -4 14
-8 36 -8 50 0 22 1 22 8 -5 4 -16 8 -39 8 -50z m-2823 16 c8 -16 22 -37 32
-46 12 -13 14 -21 6 -34 -14 -22 -43 -27 -43 -7 0 9 -4 16 -10 16 -5 0 -18 18
-29 40 -18 37 -18 41 -3 50 26 14 30 12 47 -19z m3140 -123 c4 -18 7 -78 6
-132 0 -79 -4 -103 -17 -115 -15 -15 -16 -13 -9 29 15 95 15 126 -1 179 -15
52 -13 88 5 77 5 -3 12 -20 16 -38z m-3071 -4 c20 -8 21 -30 2 -37 -17 -7 -40
18 -31 33 7 12 8 12 29 4z m3626 -8 c0 -3 -4 -8 -10 -11 -5 -3 -10 -1 -10 4 0
6 5 11 10 11 6 0 10 -2 10 -4z m-1330 -23 c0 -5 2 -38 3 -75 2 -38 0 -68 -3
-68 -10 0 -29 47 -22 54 3 4 5 27 3 51 -1 27 2 45 8 45 6 0 11 -3 11 -7z
m1269 -44 c-33 -28 -59 -37 -59 -21 0 5 12 15 28 23 15 8 33 23 41 33 11 14
16 16 19 7 2 -7 -11 -26 -29 -42z m-1809 37 c0 -3 -4 -8 -10 -11 -5 -3 -10 -1
-10 4 0 6 5 11 10 11 6 0 10 -2 10 -4z m997 -38 c-3 -8 -6 -5 -6 6 -1 11 2 17
5 13 3 -3 4 -12 1 -19z m-2691 -11 c12 -25 43 -85 56 -107 4 -8 13 -26 19 -40
6 -14 18 -34 27 -44 13 -15 14 -18 2 -14 -8 2 -28 24 -45 49 -18 24 -48 68
-68 96 -20 29 -37 60 -37 68 0 23 34 18 46 -8z m1504 13 c0 -5 -7 -10 -16 -10
-8 0 -12 5 -9 10 3 6 10 10 16 10 5 0 9 -4 9 -10z m217 -15 c8 -9 13 -25 10
-36 -3 -10 1 -26 10 -34 13 -13 9 -15 -30 -15 -42 0 -75 -12 -182 -67 -58 -30
-75 -34 -75 -18 0 8 7 15 15 15 8 0 45 16 82 37 69 37 123 84 123 107 0 28 24
34 47 11z m1616 -12 c20 -3 40 -10 44 -16 6 -11 -97 -4 -130 9 -31 11 -19 27
16 20 17 -4 49 -10 70 -13z m-1163 -32 c0 -11 3 -27 7 -37 4 -11 2 -15 -7 -12
-14 4 -23 68 -9 68 5 0 9 -9 9 -19z m-753 3 c-3 -3 -12 -4 -19 -1 -8 3 -5 6 6
6 11 1 17 -2 13 -5z m-1877 -24 c0 -5 -5 -10 -11 -10 -5 0 -7 5 -4 10 3 6 8
10 11 10 2 0 4 -4 4 -10z m1885 -20 c3 -5 -3 -10 -14 -10 -12 0 -21 5 -21 10
0 6 6 10 14 10 8 0 18 -4 21 -10z m-495 -12 c0 -4 -28 -8 -62 -7 -35 0 -55 3
-46 7 25 10 108 10 108 0z m160 -8 c103 -14 173 -32 95 -25 -27 3 -84 8 -125
11 -96 7 -120 12 -120 25 0 7 12 9 33 6 17 -3 70 -11 117 -17z m-450 0 c0 -5
-20 -10 -45 -10 -25 0 -45 5 -45 10 0 6 20 10 45 10 25 0 45 -4 45 -10z m1549
-40 c0 -10 -3 -8 -9 5 -12 27 -12 43 0 25 5 -8 9 -22 9 -30z m471 0 c0 -5 -5
-10 -11 -10 -5 0 -7 5 -4 10 3 6 8 10 11 10 2 0 4 -4 4 -10z m-605 -37 c-8
-44 -12 -53 -27 -53 -6 0 -7 7 -3 18 5 9 9 28 11 42 3 32 2 30 15 30 8 0 9
-12 4 -37z m-1848 5 c-3 -8 -6 -5 -6 6 -1 11 2 17 5 13 3 -3 4 -12 1 -19z
m2764 -25 c-12 -20 -14 -14 -5 12 4 9 9 14 11 11 3 -2 0 -13 -6 -23z m-1531
13 c0 -3 -4 -8 -10 -11 -5 -3 -10 -1 -10 4 0 6 5 11 10 11 6 0 10 -2 10 -4z
m340 0 c0 -2 -7 -9 -15 -16 -12 -10 -15 -10 -15 4 0 9 7 16 15 16 8 0 15 -2
15 -4z m230 -6 c0 -5 -4 -10 -10 -10 -5 0 -10 5 -10 10 0 6 5 10 10 10 6 0 10
-4 10 -10z m-600 -14 c0 -2 -7 -7 -16 -10 -8 -3 -12 -2 -9 4 6 10 25 14 25 6z
m860 -5 c0 -6 -4 -13 -10 -16 -5 -3 -10 1 -10 9 0 9 5 16 10 16 6 0 10 -4 10
-9z m-305 -20 c-3 -6 -11 -11 -17 -11 -6 0 -6 6 2 15 14 17 26 13 15 -4z m330
-1 c3 -5 1 -10 -4 -10 -6 0 -11 5 -11 10 0 6 2 10 4 10 3 0 8 -4 11 -10z
m-945 -15 c-7 -8 -17 -15 -22 -15 -6 0 -5 7 2 15 7 8 17 15 22 15 6 0 5 -7 -2
-15z m552 -43 c-31 -28 -41 -43 -36 -56 5 -14 2 -16 -20 -10 -21 5 -26 3 -26
-12 0 -13 -7 -19 -24 -19 l-25 0 28 25 c82 75 125 110 135 110 6 0 -8 -17 -32
-38z m112 6 c-4 -13 -10 -25 -14 -28 -4 -3 -14 -18 -23 -35 l-16 -30 -1 33 c0
17 4 32 8 32 5 0 15 11 22 25 17 31 34 33 24 3z m-724 -3 c-7 -8 -19 -15 -27
-15 -13 0 -13 3 -3 15 7 8 19 15 27 15 13 0 13 -3 3 -15z m390 5 c0 -5 -7 -10
-16 -10 -8 0 -12 5 -9 10 3 6 10 10 16 10 5 0 9 -4 9 -10z m-2039 -43 c-8 -8
-11 -7 -11 4 0 20 13 34 18 19 3 -7 -1 -17 -7 -23z m2299 24 c0 -5 -7 -12 -16
-15 -24 -9 -28 -7 -14 9 14 17 30 20 30 6z m-300 -9 c0 -5 -9 -17 -20 -27 -11
-10 -20 -24 -20 -32 0 -7 -4 -13 -10 -13 -12 0 -13 5 -1 28 5 9 12 25 15 35 5
17 36 25 36 9z m-430 -32 c0 -5 -5 -10 -11 -10 -5 0 -7 5 -4 10 3 6 8 10 11
10 2 0 4 -4 4 -10z m526 -14 c-4 -15 0 -28 9 -36 20 -17 9 -31 -18 -24 -23 5
-37 -16 -68 -104 -6 -18 -14 -31 -17 -28 -5 6 6 37 43 121 12 28 25 60 29 73
10 30 30 29 22 -2z m629 14 c3 -5 1 -10 -4 -10 -6 0 -11 5 -11 10 0 6 2 10 4
10 3 0 8 -4 11 -10z m-1215 -40 c0 -5 -5 -10 -11 -10 -5 0 -7 5 -4 10 3 6 8
10 11 10 2 0 4 -4 4 -10z m414 -44 c-9 -15 -19 -24 -22 -22 -2 3 3 17 12 32
10 14 20 23 23 21 2 -3 -3 -17 -13 -31z m260 -20 c-10 -8 -21 -12 -23 -10 -3
2 4 11 15 18 10 8 21 12 23 10 3 -2 -4 -11 -15 -18z m436 14 c0 -5 -4 -10 -10
-10 -5 0 -10 5 -10 10 0 6 5 10 10 10 6 0 10 -4 10 -10z m-523 -22 c-3 -8 -6
-5 -6 6 -1 11 2 17 5 13 3 -3 4 -12 1 -19z m221 -48 c2 -45 0 -70 -7 -70 -7 0
-11 27 -11 70 0 91 14 91 18 0z m1689 45 c-23 -22 -33 -18 -12 5 10 11 20 18
23 16 2 -3 -3 -12 -11 -21z m-1286 -24 c28 -23 20 -35 -24 -36 -31 -1 -33 1
-29 27 5 33 21 35 53 9z m-831 -16 c-7 -9 -15 -13 -18 -10 -3 2 1 11 8 20 7 9
15 13 18 10 3 -2 -1 -11 -8 -20z m220 10 c-10 -13 -10 -19 4 -33 10 -11 16
-36 16 -63 0 -24 7 -75 15 -114 18 -84 19 -108 4 -83 -9 17 -46 158 -48 188
-1 8 -4 35 -7 59 -5 31 -2 46 7 52 20 13 23 11 9 -6z m96 -31 c-1 -25 4 -57
11 -72 8 -15 12 -39 9 -56 -7 -32 17 -132 45 -190 10 -21 16 -43 13 -47 -3 -5
-2 -9 3 -9 12 0 43 -59 34 -65 -8 -4 -41 36 -41 49 0 3 -11 29 -24 58 -49 107
-86 378 -52 378 3 0 4 -21 2 -46z m1774 30 c0 -3 -20 -29 -45 -56 -25 -28 -45
-54 -45 -60 0 -5 -18 -30 -39 -56 -36 -43 -78 -122 -96 -179 -11 -39 -28 -27
-22 16 9 71 67 170 151 258 71 75 96 95 96 77z m-2650 -19 c-7 -9 -15 -13 -19
-10 -3 3 1 10 9 15 21 14 24 12 10 -5z m1810 7 c0 -18 -26 -32 -59 -31 l-36 1
32 9 c18 5 35 14 38 19 7 12 25 13 25 2z m-971 -107 c6 -55 13 -111 16 -125 4
-17 0 -14 -11 10 -15 32 -34 232 -21 220 3 -3 10 -50 16 -105z m-1509 91 c0
-2 -25 -29 -55 -60 -30 -30 -55 -62 -55 -69 0 -8 -3 -17 -7 -20 -3 -4 -7 -19
-8 -34 -2 -16 -6 -38 -10 -51 -7 -21 -5 -23 21 -17 l29 7 -30 -26 c-33 -28
-50 -33 -42 -12 3 7 1 18 -3 22 -19 19 -9 154 10 154 5 0 12 9 15 21 8 25 35
53 58 62 9 3 17 11 17 17 0 5 14 10 30 10 17 0 30 -2 30 -4z m1180 -26 c-6
-11 -16 -20 -22 -20 -6 0 -3 9 7 20 10 11 20 20 22 20 2 0 -1 -9 -7 -20z m154
-54 c-3 -14 -10 -26 -15 -26 -11 0 -11 3 1 36 13 33 23 26 14 -10z m750 -19
c5 -21 3 -28 -6 -25 -7 3 -14 20 -16 39 -4 40 12 30 22 -14z m-137 11 c-3 -8
-6 -5 -6 6 -1 11 2 17 5 13 3 -3 4 -12 1 -19z m-1417 3 c0 -5 -10 -11 -22 -14
-22 -6 -22 -6 -4 8 23 17 26 18 26 6z m535 -21 c-3 -5 -12 -10 -18 -10 -7 0
-6 4 3 10 19 12 23 12 15 0z m-1407 -47 c-16 -19 -29 -5 -16 17 9 13 14 16 20
7 4 -6 2 -17 -4 -24z m807 27 c-3 -5 -13 -10 -21 -10 -8 0 -12 5 -9 10 3 6 13
10 21 10 8 0 12 -4 9 -10z m1212 -22 c-3 -7 -5 -2 -5 12 0 14 2 19 5 13 2 -7
2 -19 0 -25z m-332 -17 c5 -12 2 -11 -13 2 -16 15 -20 15 -40 1 -12 -8 -22
-23 -22 -33 0 -10 -7 -24 -15 -31 -8 -7 -15 -19 -15 -27 0 -13 -15 -47 -41
-93 -5 -8 -14 -26 -19 -39 -6 -13 -13 -21 -16 -18 -4 3 8 34 25 68 17 34 31
63 31 65 0 1 -7 4 -16 6 -12 2 -7 12 21 41 20 21 35 40 33 43 -7 6 -51 -18
-73 -39 -9 -10 -19 -16 -22 -14 -8 8 20 57 33 57 7 0 34 11 60 24 49 25 76 21
89 -13z m-1788 3 c-27 -25 -47 -25 -47 1 0 16 15 23 50 24 l25 1 -28 -26z
m153 18 c0 -13 -12 -22 -22 -16 -10 6 -1 24 13 24 5 0 9 -4 9 -8z m1231 -7
c-18 -8 -41 -15 -50 -14 -9 0 0 7 19 14 47 18 74 18 31 0z m-541 -5 c0 -5 -9
-10 -20 -10 -11 0 -20 -7 -20 -15 0 -12 23 -14 156 -10 90 2 153 0 148 -5 -13
-13 -474 -21 -474 -9 0 6 21 9 48 8 31 -1 61 5 87 19 33 16 52 25 73 31 1 1 2
-3 2 -9z m1684 -12 c10 -38 6 -45 -9 -18 -17 29 -18 40 -6 40 5 0 11 -10 15
-22z m-1323 -9 c-13 -11 -26 -17 -29 -14 -7 6 29 34 43 34 6 0 -1 -9 -14 -20z
m939 -10 c0 -5 -4 -9 -10 -9 -5 0 -10 7 -10 16 0 8 5 12 10 9 6 -3 10 -10 10
-16z m-2090 7 c0 -3 -4 -8 -10 -11 -5 -3 -10 -1 -10 4 0 6 5 11 10 11 6 0 10
-2 10 -4z m1110 -16 c0 -5 -7 -10 -15 -10 -8 0 -15 5 -15 10 0 6 7 10 15 10 8
0 15 -4 15 -10z m669 -17 c47 -49 130 -183 112 -183 -4 0 -15 15 -26 33 -10
17 -30 46 -44 63 -50 60 -60 73 -71 93 -15 29 -4 26 29 -6z m-1925 2 c3 -8 1
-15 -4 -15 -6 0 -10 7 -10 15 0 8 2 15 4 15 2 0 6 -7 10 -15z m601 4 c6 -1
-12 -5 -40 -9 -54 -8 -60 -7 -51 9 6 8 48 8 91 0z m85 1 c12 -8 9 -10 -12 -10
-15 0 -30 5 -33 10 -8 13 25 13 45 0z m1569 -48 c1 -7 -3 -10 -9 -7 -5 3 -10
18 -9 33 0 24 1 25 9 7 5 -11 9 -26 9 -33z m-2209 28 c0 -5 -5 -10 -11 -10 -5
0 -7 5 -4 10 3 6 8 10 11 10 2 0 4 -4 4 -10z m1174 -15 c-9 -14 -19 -23 -22
-20 -5 4 26 45 35 45 2 0 -4 -11 -13 -25z m399 13 c-32 -15 -30 -48 1 -48 14
0 28 5 31 10 10 16 25 12 19 -5 -4 -8 -14 -15 -24 -15 -10 0 -26 -7 -34 -16
-15 -14 -16 -14 -16 0 0 9 -6 25 -12 36 -11 16 -9 22 7 34 11 9 27 15 35 15 9
0 6 -5 -7 -11z m-1668 -47 c-9 -42 -22 -31 -17 14 3 24 8 33 14 27 6 -6 7 -24
3 -41z m1157 27 c-7 -7 -12 -8 -12 -2 0 14 12 26 19 19 2 -3 -1 -11 -7 -17z
m1543 -53 c3 -25 10 -47 16 -50 12 -8 12 -25 0 -25 -12 0 -51 103 -51 133 1
21 1 21 14 4 8 -10 17 -38 21 -62z m-1091 39 c30 -12 16 -24 -27 -24 -23 0
-58 -9 -78 -19 -42 -23 -78 -30 -78 -16 -1 6 10 13 22 16 13 3 39 13 58 22 19
9 45 18 59 20 14 2 26 5 27 6 1 0 8 -2 17 -5z m530 -39 c6 -28 5 -29 -9 -11
-8 11 -15 29 -15 40 0 28 16 8 24 -29z m-1009 16 c-3 -6 -11 -11 -17 -11 -6 0
-6 6 2 15 14 17 26 13 15 -4z m1108 -38 c22 -44 31 -77 18 -69 -6 4 -11 15
-11 25 0 10 -7 24 -15 31 -8 7 -15 19 -15 26 0 21 8 17 23 -13z m93 0 c4 -16
14 -38 21 -50 8 -12 13 -30 11 -40 -2 -11 -10 0 -22 32 -10 28 -22 58 -27 68
-6 11 -6 17 1 17 5 0 13 -12 16 -27z m-1256 -3 c0 -5 -5 -10 -11 -10 -5 0 -7
5 -4 10 3 6 8 10 11 10 2 0 4 -4 4 -10z m130 0 c0 -5 -5 -10 -11 -10 -5 0 -7
5 -4 10 3 6 8 10 11 10 2 0 4 -4 4 -10z m196 -27 c-11 -11 -19 6 -11 24 8 17
8 17 12 0 3 -10 2 -21 -1 -24z m1454 17 c0 -5 -4 -10 -10 -10 -5 0 -10 5 -10
10 0 6 5 10 10 10 6 0 10 -4 10 -10z m-1811 -23 c-2 -1 -13 -9 -24 -17 -19
-14 -19 -14 -6 3 7 9 18 17 24 17 6 0 8 -1 6 -3z m241 -7 c0 -5 -8 -10 -17
-10 -15 0 -16 2 -3 10 19 12 20 12 20 0z m-950 -35 c-7 -8 -17 -15 -22 -15 -6
0 -5 7 2 15 7 8 17 15 22 15 6 0 5 -7 -2 -15z m1134 -6 c-3 -5 -17 -9 -32 -9
-24 0 -25 1 -7 14 20 14 49 11 39 -5z m108 -1 c-7 -7 -12 -8 -12 -2 0 14 12
26 19 19 2 -3 -1 -11 -7 -17z m138 18 c0 -3 -4 -8 -10 -11 -5 -3 -10 -1 -10 4
0 6 5 11 10 11 6 0 10 -2 10 -4z m-752 -54 c-7 -11 -17 -20 -23 -21 -25 -3
-45 -13 -45 -22 0 -5 -6 -9 -12 -9 -7 1 10 21 37 45 48 42 71 46 43 7z m359
32 c-3 -3 -12 -4 -19 -1 -8 3 -5 6 6 6 11 1 17 -2 13 -5z m1115 -16 c-7 -7
-12 -8 -12 -2 0 14 12 26 19 19 2 -3 -1 -11 -7 -17z m-244 -13 c6 -14 8 -25 4
-25 -4 0 -12 11 -19 25 -6 14 -8 25 -4 25 4 0 13 -11 19 -25z m-516 -7 c-7 -7
-12 -8 -12 -2 0 14 12 26 19 19 2 -3 -1 -11 -7 -17z m-122 -3 c0 -8 -4 -15
-10 -15 -5 0 -7 7 -4 15 4 8 8 15 10 15 2 0 4 -7 4 -15z m1240 5 c8 -5 12 -11
9 -14 -3 -3 -14 1 -25 9 -21 16 -8 20 16 5z m-1697 -7 c-7 -2 -13 -13 -13 -24
0 -19 -11 -25 -23 -13 -10 10 16 44 33 43 10 0 11 -2 3 -6z m1036 -68 c0 -29
0 -28 -14 10 -19 52 -19 78 0 45 8 -14 14 -38 14 -55z m261 55 c0 -5 -4 -10
-9 -10 -6 0 -13 5 -16 10 -3 6 1 10 9 10 9 0 16 -4 16 -10z m-660 -4 c0 -3 -4
-8 -10 -11 -5 -3 -10 -1 -10 4 0 6 5 11 10 11 6 0 10 -2 10 -4z m-405 -26 c-9
-10 -34 -25 -54 -31 -20 -7 -38 -15 -41 -18 -3 -3 -30 -19 -60 -34 -30 -15
-62 -31 -70 -36 -82 -46 -184 -91 -207 -91 -24 1 -19 5 32 30 33 16 65 32 70
37 6 5 36 21 68 37 31 15 57 32 57 37 0 5 9 9 20 9 11 0 20 4 20 9 0 6 27 20
60 32 33 12 63 26 66 30 3 5 17 9 31 9 25 0 26 -1 8 -20z m205 -34 c0 -24 -16
-43 -26 -33 -8 7 7 57 17 57 5 0 9 -11 9 -24z m165 -13 c-4 -21 -10 -42 -13
-48 -4 -5 -7 -12 -8 -15 -6 -31 -18 -60 -25 -60 -4 0 -2 18 6 41 8 22 19 58
25 80 14 50 24 51 15 2z m-865 -9 c0 -8 -4 -12 -10 -9 -5 3 -10 10 -10 16 0 5
5 9 10 9 6 0 10 -7 10 -16z m791 -17 c-8 -8 -11 -7 -11 4 0 20 13 34 18 19 3
-7 -1 -17 -7 -23z m625 -61 c-4 -28 -11 -58 -17 -66 -8 -11 -8 -3 -3 25 5 22
8 60 7 84 0 34 2 40 9 27 6 -10 7 -41 4 -70z m-108 21 c2 -36 0 -47 -11 -47
-17 0 -35 -27 -62 -90 -45 -110 -69 -151 -103 -177 -21 -15 -42 -34 -49 -43
-10 -12 -11 -10 -5 14 5 19 20 36 42 48 28 14 35 24 36 51 2 40 24 100 48 126
24 27 76 132 76 154 0 40 25 8 28 -36z m-1940 16 c6 -19 -25 -16 -32 3 -4 11
-1 14 11 12 9 -2 18 -9 21 -15z m572 7 c0 -5 -5 -10 -11 -10 -5 0 -7 5 -4 10
3 6 8 10 11 10 2 0 4 -4 4 -10z m731 -17 c-8 -15 -10 -15 -11 -2 0 17 10 32
18 25 2 -3 -1 -13 -7 -23z m94 -50 c-10 -32 -19 -64 -21 -70 -2 -7 -8 -13 -14
-13 -10 0 -4 43 9 65 3 6 6 12 6 15 1 13 28 70 32 66 3 -2 -3 -31 -12 -63z
m-880 27 c-3 -5 -11 -10 -16 -10 -6 0 -7 5 -4 10 3 6 11 10 16 10 6 0 7 -4 4
-10z m3008 -27 c-4 -16 -7 -45 -6 -65 1 -21 -3 -38 -8 -38 -10 0 -12 53 -3 99
4 17 11 31 15 31 5 0 6 -12 2 -27z m-3053 -7 c0 -2 -7 -9 -15 -16 -13 -11 -14
-10 -9 4 5 14 24 23 24 12z m100 -6 c0 -5 -7 -10 -15 -10 -8 0 -15 5 -15 10 0
6 7 10 15 10 8 0 15 -4 15 -10z m-51 -21 c-22 -14 -33 -10 -19 6 7 8 17 12 22
9 6 -4 5 -10 -3 -15z m762 -42 c-8 -8 -11 -2 -11 19 0 40 14 54 18 19 2 -15
-1 -32 -7 -38z m664 -43 c-4 -73 -5 -76 -15 -41 -11 35 0 150 11 121 4 -11 6
-47 4 -80z m-865 76 c0 -5 -4 -10 -10 -10 -5 0 -10 5 -10 10 0 6 5 10 10 10 6
0 10 -4 10 -10z m185 -132 c5 -18 3 -28 -4 -28 -6 0 -11 -16 -11 -36 0 -21 -4
-33 -10 -29 -6 4 -10 55 -9 123 l1 117 13 -60 c7 -33 16 -72 20 -87z m174 90
c-4 -24 -15 -79 -24 -123 -9 -44 -16 -111 -15 -148 0 -39 -3 -66 -8 -63 -23
14 -1 262 28 316 5 10 10 28 10 39 0 12 4 21 8 21 5 0 5 -19 1 -42z m-959 22
c0 -5 -4 -10 -10 -10 -5 0 -10 5 -10 10 0 6 5 10 10 10 6 0 10 -4 10 -10z
m708 -69 c13 -30 22 -74 21 -100 l-1 -46 -13 60 c-16 77 -34 125 -47 125 -18
0 -37 -34 -38 -67 0 -17 -5 -44 -11 -60 -7 -15 -14 -58 -16 -96 -3 -57 -1 -72
17 -97 19 -27 21 -39 15 -103 -7 -77 23 -286 45 -312 6 -8 10 -24 8 -37 -2
-15 -13 5 -32 62 -16 47 -33 90 -37 95 -13 17 -23 176 -11 184 10 6 15 36 13
80 -1 16 -5 21 -16 17 -12 -4 -15 5 -16 52 -2 96 2 135 17 193 8 31 14 69 14
84 0 21 4 25 19 20 11 -3 22 -1 26 5 10 16 18 5 43 -59z m-148 55 c0 -3 -4 -8
-10 -11 -5 -3 -10 -1 -10 4 0 6 5 11 10 11 6 0 10 -2 10 -4z m1208 -48 c9 -11
11 -18 4 -18 -6 0 -18 13 -27 30 -17 33 -20 56 -3 25 6 -11 18 -28 26 -37z
m1561 -4 c-15 -36 -20 -71 -20 -153 -1 -105 6 -220 17 -253 3 -10 1 -18 -5
-18 -5 0 -13 10 -17 23 -4 12 -10 24 -13 27 -13 10 -41 148 -41 202 0 64 24
140 58 186 35 46 45 40 21 -14z m-3456 16 c-3 -11 -12 -20 -21 -20 -13 0 -12
3 3 20 10 11 19 20 21 20 1 0 0 -9 -3 -20z m77 16 c0 -3 -4 -8 -10 -11 -5 -3
-10 -1 -10 4 0 6 5 11 10 11 6 0 10 -2 10 -4z m641 -49 c-13 -13 -15 11 -4 40
7 16 8 15 11 -6 2 -13 -1 -28 -7 -34z m-538 -1 c-4 -16 4 -36 21 -59 28 -36
32 -47 17 -47 -5 0 -17 14 -25 30 -9 17 -23 44 -32 61 -14 26 -14 33 -3 39 19
12 27 4 22 -24z m274 18 c-3 -3 -12 -4 -19 -1 -8 3 -5 6 6 6 11 1 17 -2 13 -5z
m2723 -15 c0 -6 -4 -7 -10 -4 -5 3 -10 11 -10 16 0 6 5 7 10 4 6 -3 10 -11 10
-16z m-2560 -14 c0 -8 -7 -15 -15 -15 -16 0 -20 12 -8 23 11 12 23 8 23 -8z
m-265 -5 c3 -6 -1 -7 -9 -4 -18 7 -21 14 -7 14 6 0 13 -4 16 -10z m315 -21
c-5 -17 -9 -34 -8 -38 0 -3 -1 -8 -2 -11 -6 -17 -11 -57 -18 -145 l-7 -100 -8
70 c-4 41 -3 86 3 105 6 19 10 45 10 58 0 23 25 92 34 92 2 0 1 -14 -4 -31z
m-370 12 c0 -15 -16 -22 -34 -15 -25 9 -19 24 9 24 14 0 25 -4 25 -9z m270 -1
c0 -5 -5 -10 -11 -10 -5 0 -7 5 -4 10 3 6 8 10 11 10 2 0 4 -4 4 -10z m-155
-10 c-3 -5 -15 -10 -26 -10 -10 0 -19 5 -19 10 0 6 12 10 26 10 14 0 23 -4 19
-10z m-605 -14 c0 -11 -19 -15 -25 -6 -3 5 1 10 9 10 9 0 16 -2 16 -4z m780
-55 c-13 -24 -30 -28 -30 -6 0 8 4 15 9 15 5 0 12 10 16 23 6 18 8 19 12 5 2
-9 -1 -26 -7 -37z m1410 29 c0 -5 -2 -10 -4 -10 -3 0 -8 5 -11 10 -3 6 -1 10
4 10 6 0 11 -4 11 -10z m-1300 -85 c-3 -23 -5 -85 -4 -138 1 -54 -1 -97 -6
-97 -5 0 -10 42 -12 93 -3 104 10 234 22 203 3 -11 3 -38 0 -61z m247 2 c6
-34 19 -87 28 -117 60 -200 68 -276 41 -392 -13 -55 -42 -138 -49 -138 -1 0
-3 87 -4 193 -1 113 -8 241 -18 312 -26 191 -28 221 -19 212 5 -5 14 -36 21
-70z m46 31 c-3 -16 -10 -28 -15 -28 -6 0 -8 10 -4 23 3 12 6 29 6 37 0 9 3
10 9 5 5 -6 7 -22 4 -37z m1077 22 c13 -8 13 -10 -2 -10 -9 0 -20 5 -23 10 -8
13 5 13 25 0z m-1650 -10 c-8 -5 -26 -9 -40 -9 l-25 1 25 8 c14 4 32 8 40 9
13 1 13 0 0 -9z m-77 -7 c-7 -2 -19 -2 -25 0 -7 3 -2 5 12 5 14 0 19 -2 13 -5z
m1112 -3 c-3 -5 -11 -10 -16 -10 -6 0 -7 5 -4 10 3 6 11 10 16 10 6 0 7 -4 4
-10z m-916 -105 c-14 -114 -8 -180 39 -427 11 -59 -3 -63 -18 -5 -6 23 -18 67
-26 97 -9 30 -17 66 -19 80 -2 14 -5 25 -6 25 -1 0 -3 11 -5 25 -1 14 -5 43
-9 65 -4 24 0 69 10 115 9 41 17 80 18 85 4 15 19 37 23 32 2 -2 -1 -43 -7
-92z m41 13 c0 -45 -2 -79 -4 -77 -7 7 -17 139 -11 149 12 20 15 8 15 -72z
m290 61 c0 -5 -4 -9 -10 -9 -5 0 -10 7 -10 16 0 8 5 12 10 9 6 -3 10 -10 10
-16z m-600 -9 c0 -5 -4 -10 -10 -10 -5 0 -10 5 -10 10 0 6 5 10 10 10 6 0 10
-4 10 -10z m612 -283 c-2 -46 -7 -75 -13 -71 -5 3 -7 14 -4 25 4 10 2 19 -3
19 -10 0 -21 -59 -14 -79 3 -9 7 -9 18 0 15 13 17 -8 16 -179 0 -58 3 -82 11
-79 15 5 20 171 10 310 -8 104 -4 132 19 109 14 -14 24 -357 10 -366 -10 -6
-9 -29 3 -109 4 -25 3 -26 -10 -13 -8 8 -23 12 -32 10 -13 -4 -24 7 -41 38
-26 51 -28 73 -6 64 13 -5 14 -1 9 25 -20 89 -25 320 -10 397 6 31 10 77 8
102 -1 25 0 52 4 60 10 23 28 -175 25 -263z m118 217 c0 -8 -4 -12 -10 -9 -5
3 -10 10 -10 16 0 5 5 9 10 9 6 0 10 -7 10 -16z m777 -21 c-9 -9 -20 -13 -24
-9 -4 4 1 14 11 22 25 18 35 8 13 -13z m-487 -3 c-6 -11 -13 -20 -16 -20 -2 0
0 9 6 20 6 11 13 20 16 20 2 0 0 -9 -6 -20z m432 -49 c-18 -15 -45 -34 -60
-41 -15 -7 -34 -16 -42 -20 -24 -11 -128 -12 -135 0 -3 6 4 9 17 8 31 -2 184
50 198 68 7 8 22 14 34 14 19 -1 18 -4 -12 -29z m-697 -11 c14 -27 21 -59 10
-49 -8 9 -35 79 -30 79 2 0 11 -13 20 -30z m225 -5 c0 -8 -4 -15 -10 -15 -5 0
-7 7 -4 15 4 8 8 15 10 15 2 0 4 -7 4 -15z m42 -7 c-7 -7 -12 -8 -12 -2 0 6 3
14 7 17 3 4 9 5 12 2 2 -3 -1 -11 -7 -17z m1201 -5 c26 9 47 4 35 -8 -10 -11
-77 -17 -102 -11 -38 9 -32 25 7 16 17 -3 45 -2 60 3z m-1133 -33 c0 -6 -8
-22 -17 -37 -15 -23 -18 -23 -23 -7 -4 10 0 26 9 36 17 20 31 23 31 8z m-287
-112 c3 -21 2 -38 -3 -38 -8 0 -14 20 -24 95 l-6 40 13 -30 c8 -16 16 -47 20
-67z m-2383 75 c0 -14 -75 -73 -93 -73 -10 0 -15 5 -12 10 3 6 14 10 24 10 9
0 28 13 41 30 24 28 40 38 40 23z m2703 -49 c-13 -30 -18 -35 -21 -20 -2 10 0
21 5 25 5 3 13 15 16 25 4 10 10 17 12 14 3 -3 -2 -22 -12 -44z m-102 3 c-22
-40 -51 -136 -51 -170 0 -14 -4 -28 -9 -31 -12 -8 -7 46 9 104 15 53 52 130
62 130 4 0 -1 -15 -11 -33z m159 23 c0 -5 -4 -10 -10 -10 -5 0 -10 5 -10 10 0
6 5 10 10 10 6 0 10 -4 10 -10z m25 -72 c-35 -70 -46 -118 -44 -203 1 -52 -3
-91 -10 -99 -11 -13 -5 -55 26 -161 3 -11 2 -17 -3 -12 -20 19 -54 156 -54
222 0 51 -3 66 -11 58 -14 -14 -13 -219 1 -278 12 -51 13 -88 1 -81 -20 13
-35 202 -25 322 5 55 10 71 21 70 15 -1 28 26 57 122 16 50 47 97 54 80 2 -4
-4 -22 -13 -40z m-1595 14 c0 -15 -2 -15 -10 -2 -13 20 -13 33 0 25 6 -3 10
-14 10 -23z m1445 19 c3 -5 1 -12 -5 -16 -5 -3 -10 1 -10 9 0 18 6 21 15 7z
m-2215 -22 c0 -5 -12 -15 -27 -22 -16 -6 -36 -20 -47 -29 -25 -23 -70 -32 -95
-19 -11 6 -29 11 -41 11 -13 0 -20 5 -17 13 2 7 14 10 28 7 58 -11 95 -4 138
28 41 30 61 33 61 11z m1252 -11 c-7 -7 -12 -8 -12 -2 0 14 12 26 19 19 2 -3
-1 -11 -7 -17z m-517 -8 c3 -5 1 -10 -4 -10 -6 0 -11 5 -11 10 0 6 2 10 4 10
3 0 8 -4 11 -10z m225 -2 c0 -7 3 -24 6 -38 l5 -25 -15 25 c-18 29 -20 50 -6
50 6 0 10 -6 10 -12z m1300 7 c0 -3 -7 -22 -15 -42 -8 -19 -15 -45 -15 -56 0
-11 -3 -17 -7 -14 -8 9 18 117 29 117 4 0 8 -2 8 -5z m-1413 -78 c9 -18 20
-27 29 -23 10 4 14 -3 14 -30 0 -44 -27 -89 -45 -74 -10 8 -14 4 -19 -15 -9
-33 -41 -65 -67 -65 -20 0 -20 1 -2 33 10 17 22 35 27 39 13 9 36 127 29 147
-4 9 -12 20 -20 24 -7 4 -13 15 -13 24 0 13 5 12 26 -8 14 -13 33 -37 41 -52z
m1343 32 c-6 -18 -10 -49 -10 -66 0 -18 -5 -33 -11 -33 -12 0 -5 74 12 118 14
36 20 22 9 -19z m-951 -6 c-5 -21 -8 -78 -8 -126 2 -75 -1 -90 -17 -102 -18
-14 -18 -15 4 -21 17 -5 20 -9 11 -20 -12 -15 -10 -62 5 -82 6 -8 5 -17 -2
-24 -8 -8 -14 -5 -21 13 -8 21 -10 22 -16 7 -10 -26 -25 -22 -25 7 0 17 6 25
18 26 15 1 15 2 1 6 -20 5 -29 55 -19 98 4 16 16 68 25 115 10 47 22 89 27 95
4 5 8 17 8 27 0 10 4 18 9 18 5 0 5 -15 0 -37z m1150 -27 c-11 -32 -23 -56
-24 -54 -6 6 17 92 28 106 19 24 18 4 -4 -52z m-101 4 c-13 -53 -34 -82 -25
-35 7 39 26 89 32 84 2 -3 -1 -25 -7 -49z m-1593 -10 c-3 -48 -13 -46 -16 4
-3 32 -1 42 7 35 7 -5 11 -23 9 -39z m42 -12 c-2 -13 -4 -3 -4 22 0 25 2 35 4
23 2 -13 2 -33 0 -45z m193 41 c0 -5 -4 -9 -10 -9 -5 0 -10 7 -10 16 0 8 5 12
10 9 6 -3 10 -10 10 -16z m1020 -79 c-10 -23 -10 -22 -5 9 3 18 6 48 7 65 1
25 2 23 5 -9 2 -23 -1 -52 -7 -65z m-2040 50 c0 -5 -4 -10 -10 -10 -5 0 -10 5
-10 10 0 6 5 10 10 10 6 0 10 -4 10 -10z m720 -15 c0 -9 -7 -18 -16 -22 -8 -3
-13 -12 -10 -19 6 -16 -10 -19 -19 -3 -5 6 -12 4 -21 -8 -7 -10 -14 -13 -14
-7 0 12 59 74 71 74 5 0 9 -7 9 -15z m347 -7 c-3 -8 -6 -5 -6 6 -1 11 2 17 5
13 3 -3 4 -12 1 -19z m190 -10 c-3 -8 -6 -5 -6 6 -1 11 2 17 5 13 3 -3 4 -12
1 -19z m-1754 -39 c44 -50 33 -159 -15 -159 -16 0 -19 3 -10 9 8 5 14 32 15
71 2 62 1 64 -32 82 -31 17 -35 18 -51 3 -11 -10 -20 -12 -24 -6 -9 14 23 30
59 31 22 0 38 -9 58 -31z m1095 -28 c3 -41 5 -43 29 -38 41 8 55 -1 36 -22
-14 -17 -17 -17 -50 -2 -30 14 -34 20 -29 43 3 16 0 31 -9 38 -16 14 -10 33 8
27 7 -2 13 -23 15 -46z m182 39 c0 -5 -5 -10 -11 -10 -5 0 -7 5 -4 10 3 6 8
10 11 10 2 0 4 -4 4 -10z m-1170 -25 c11 -13 10 -14 -4 -9 -9 3 -16 10 -16 15
0 13 6 11 20 -6z m1437 -7 c-3 -8 -6 -5 -6 6 -1 11 2 17 5 13 3 -3 4 -12 1
-19z m1409 -76 c0 -48 4 -99 8 -114 5 -18 4 -28 -2 -28 -6 0 -14 19 -18 43 -8
45 -12 176 -6 190 10 22 17 -13 18 -91z m-1248 76 c-6 -18 -28 -21 -28 -4 0 9
7 16 16 16 9 0 14 -5 12 -12z m818 -14 c-4 -9 -9 -15 -11 -12 -3 3 -3 13 1 22
4 9 9 15 11 12 3 -3 3 -13 -1 -22z m-1336 0 c0 -8 -4 -12 -10 -9 -5 3 -10 10
-10 16 0 5 5 9 10 9 6 0 10 -7 10 -16z m323 -42 c-22 -16 -27 -4 -12 34 l11
29 10 -25 c7 -19 5 -27 -9 -38z m1291 -34 c-5 -95 10 -264 27 -307 6 -15 6
-28 1 -33 -9 -9 -15 14 -39 147 -5 27 -7 162 -4 253 1 17 5 32 10 32 6 0 8
-39 5 -92z m-84 62 c0 -5 -5 -10 -11 -10 -5 0 -7 5 -4 10 3 6 8 10 11 10 2 0
4 -4 4 -10z m-1380 -20 c0 -5 -5 -10 -11 -10 -5 0 -7 5 -4 10 3 6 8 10 11 10
2 0 4 -4 4 -10z m1373 -25 c-3 -9 -8 -14 -10 -11 -3 3 -2 9 2 15 9 16 15 13 8
-4z m-222 -32 c-12 -20 -14 -14 -5 12 4 9 9 14 11 11 3 -2 0 -13 -6 -23z
m-1307 -56 c6 -9 7 -19 4 -23 -9 -8 -38 20 -38 36 0 16 21 8 34 -13z m1212
-67 c8 0 14 -8 14 -18 0 -28 -24 -72 -39 -72 -9 0 -11 5 -5 18 4 9 8 35 7 57
0 22 2 34 4 28 3 -7 11 -13 19 -13z m564 -31 c0 -10 5 -19 10 -19 13 0 13 6 0
31 -6 10 -7 19 -2 19 5 0 17 -19 27 -42 28 -65 34 -88 24 -88 -5 0 -9 -7 -9
-15 0 -8 8 -15 18 -15 19 0 42 -18 42 -34 0 -5 -9 -1 -19 8 -19 17 -20 17 -23
-4 -2 -18 -6 -15 -22 17 -10 21 -22 46 -27 56 -6 11 -5 17 1 17 5 0 10 -5 10
-11 0 -5 4 -7 10 -4 6 4 5 11 -3 19 -6 8 -15 12 -19 10 -8 -5 -48 72 -41 80
10 10 23 -4 23 -25z m-237 -19 c3 -11 1 -18 -4 -14 -5 3 -9 12 -9 20 0 20 7
17 13 -6z m-698 -66 c-36 -29 -65 -37 -65 -18 0 8 -8 14 -19 14 -10 0 -24 7
-31 15 -10 12 -9 15 4 15 9 0 25 -5 35 -12 19 -12 56 -4 47 10 -3 5 9 6 26 4
l32 -5 -29 -23z m-145 16 c0 -5 -4 -10 -10 -10 -5 0 -10 5 -10 10 0 6 5 10 10
10 6 0 10 -4 10 -10z m1090 -78 c0 -7 9 -30 20 -52 11 -21 16 -41 11 -45 -5
-3 -15 12 -21 32 -7 21 -18 47 -25 59 -8 12 -16 39 -19 60 l-6 39 20 -40 c11
-22 20 -46 20 -53z m-2764 33 c9 -14 22 -25 30 -25 12 0 34 -29 34 -45 0 -3
-17 7 -37 22 -29 22 -46 28 -86 27 l-50 -1 29 24 c37 30 60 29 80 -2z m64 -5
c0 -5 -4 -10 -9 -10 -6 0 -13 5 -16 10 -3 6 1 10 9 10 9 0 16 -4 16 -10z
m2618 -33 c5 -24 -15 -21 -21 4 -3 13 -1 19 6 16 7 -2 13 -11 15 -20z m-2580
-22 c-3 -3 -9 2 -12 12 -6 14 -5 15 5 6 7 -7 10 -15 7 -18z m2802 -26 c0 -6
-4 -7 -10 -4 -5 3 -10 11 -10 16 0 6 5 7 10 4 6 -3 10 -11 10 -16z m1043 -109
c41 -82 42 -89 45 -199 2 -69 0 -117 -7 -124 -7 -7 -9 2 -8 29 1 43 -20 178
-34 209 -5 11 -11 31 -13 45 -6 34 -34 99 -57 132 -27 37 -23 46 7 17 14 -13
44 -62 67 -109z m-1089 58 c9 -17 14 -34 11 -36 -7 -7 -19 7 -33 41 -16 38 3
34 22 -5z m71 22 c3 -5 2 -10 -4 -10 -5 0 -13 5 -16 10 -3 6 -2 10 4 10 5 0
13 -4 16 -10z m-105 -78 c0 -33 -16 -18 -26 23 -7 27 -6 29 9 16 10 -7 17 -25
17 -39z m-877 -49 c-15 -20 -19 -41 -17 -75 2 -35 -1 -48 -10 -48 -26 0 -36
87 -11 96 8 4 15 11 15 17 0 13 32 49 38 43 2 -3 -5 -17 -15 -33z m14 -75 c-3
-8 -6 -5 -6 6 -1 11 2 17 5 13 3 -3 4 -12 1 -19z m27 -127 c-5 -6 -44 31 -56
53 -6 10 5 3 24 -15 20 -19 34 -36 32 -38z m-1304 -420 c0 -11 -4 -23 -10 -26
-6 -4 -10 5 -10 19 0 14 5 26 10 26 6 0 10 -9 10 -19z m240 -1 c0 -5 -5 -10
-11 -10 -5 0 -7 5 -4 10 3 6 8 10 11 10 2 0 4 -4 4 -10z m-225 -74 c-17 -31
-62 -72 -71 -63 -3 2 8 18 23 35 35 38 53 67 54 89 1 11 3 9 6 -6 3 -13 -3
-38 -12 -55z m259 31 c-8 -21 -75 -48 -93 -37 -14 8 -13 9 4 10 11 0 34 9 50
19 36 23 46 25 39 8z m-294 -1 c0 -3 -4 -8 -10 -11 -5 -3 -10 -1 -10 4 0 6 5
11 10 11 6 0 10 -2 10 -4z m135 -6 c3 -6 -1 -7 -9 -4 -18 7 -21 14 -7 14 6 0
13 -4 16 -10z m2125 6 c0 -3 -4 -8 -10 -11 -5 -3 -10 -1 -10 4 0 6 5 11 10 11
6 0 10 -2 10 -4z m-2314 -51 c-11 -8 -25 -15 -30 -15 -6 1 0 7 14 15 32 19 40
18 16 0z m2244 -15 c0 -5 -5 -10 -11 -10 -5 0 -7 5 -4 10 3 6 8 10 11 10 2 0
4 -4 4 -10z m-44 -48 c-27 -28 -56 -65 -56 -71 0 -3 -10 -17 -23 -31 -33 -37
-52 -70 -67 -115 -15 -47 -38 -85 -51 -85 -23 0 30 118 90 201 51 70 116 140
119 129 2 -6 -3 -19 -12 -28z m408 -15 c14 -10 16 -21 11 -49 -6 -31 -11 -37
-41 -43 -28 -5 -36 -12 -40 -35 -5 -24 -23 -38 -51 -38 -14 0 -22 -30 -17 -63
5 -32 3 -38 -15 -44 -23 -7 -38 -46 -25 -66 5 -9 2 -10 -11 -5 -10 4 -28 0
-41 -9 -13 -9 -24 -11 -24 -5 0 5 -7 10 -15 10 -8 0 -15 -7 -15 -15 0 -8 6
-15 13 -15 12 0 42 -39 35 -46 -6 -6 -100 42 -108 56 -5 7 -18 14 -31 15 -29
2 -37 23 -12 32 33 11 53 36 53 65 0 20 6 31 23 37 28 11 68 53 71 76 1 10 25
30 54 44 32 16 52 33 52 44 0 9 6 17 13 17 8 0 22 9 32 20 10 12 25 18 32 16
7 -3 15 -1 18 4 8 13 18 12 39 -3z m-2515 -161 c22 -34 30 -123 11 -111 -5 3
-10 23 -10 43 0 21 -9 48 -20 62 -21 27 -25 40 -11 40 5 0 19 -15 30 -34z
m327 -212 c18 -14 16 -15 -28 -9 -61 8 -124 -11 -133 -39 -6 -18 -8 -19 -12
-4 -8 30 28 56 82 61 28 2 55 4 61 5 5 1 19 -5 30 -14z m44 -34 c0 -5 -4 -10
-10 -10 -5 0 -10 5 -10 10 0 6 5 10 10 10 6 0 10 -4 10 -10z m2180 -563 c33
-38 93 -62 139 -55 18 3 28 1 23 -4 -4 -4 -29 -11 -54 -14 -56 -8 -108 19
-133 68 -25 51 -17 52 25 5z m-50 -97 c7 -16 28 -41 47 -56 28 -21 43 -25 79
-22 44 3 58 -4 28 -16 -38 -15 -100 -6 -121 17 -23 24 -63 88 -63 100 0 18 19
4 30 -23z m617 -492 c29 -31 25 -92 -6 -96 -24 -4 -51 -38 -51 -64 0 -10 -4
-18 -10 -18 -5 0 -10 -6 -10 -14 0 -8 -6 -16 -12 -18 -8 -3 -11 -20 -9 -46 2
-34 -1 -42 -14 -42 -12 0 -16 -6 -12 -20 3 -10 0 -21 -7 -23 -8 -3 -8 -8 2
-18 19 -21 14 -30 -13 -23 -32 8 -75 -3 -75 -19 0 -6 12 -23 25 -36 14 -13 23
-26 20 -29 -4 -5 -95 37 -105 49 -11 12 -46 22 -72 20 -32 -3 -38 15 -9 24 38
12 76 57 72 87 -2 24 1 28 22 28 21 0 26 6 32 38 7 41 63 112 90 112 9 0 19 9
23 21 8 21 82 107 93 108 3 1 15 -9 26 -21z m-847 -302 c-1 -35 -61 -126 -85
-126 -8 0 -15 5 -15 10 0 6 4 10 8 10 5 0 19 14 32 32 19 26 23 43 22 92 l-1
61 19 -24 c11 -13 20 -37 20 -55z m-5 -222 c14 -9 25 -22 25 -29 0 -7 5 -15
11 -17 5 -2 12 -21 15 -43 5 -42 -13 -74 -48 -88 -21 -7 -34 9 -21 26 18 24
-7 147 -30 147 -7 0 -6 4 3 10 19 12 17 13 45 -6z m393 -119 c45 -24 50 -29
57 -58 6 -20 4 -27 -8 -27 -8 0 -17 7 -21 15 -3 8 -14 15 -24 15 -10 0 -23 5
-29 11 -17 17 -94 -8 -121 -39 -12 -15 -28 -38 -34 -52 -16 -38 -22 -7 -8 50
8 34 20 54 38 66 18 12 27 13 30 6 2 -7 8 -12 13 -12 6 0 7 5 4 10 -19 31 55
42 103 15z"/>
<path d="M2090 4350 c0 -5 5 -10 10 -10 6 0 10 5 10 10 0 6 -4 10 -10 10 -5 0
-10 -4 -10 -10z"/>
<path d="M4200 721 c0 -6 5 -13 10 -16 6 -3 10 1 10 9 0 9 -4 16 -10 16 -5 0
-10 -4 -10 -9z"/>
<path d="M1100 7832 c0 -5 21 -12 48 -15 26 -2 56 -8 67 -12 18 -7 18 -6 5 8
-17 17 -120 34 -120 19z"/>
<path d="M1047 7815 c-9 -22 8 -26 21 -4 10 15 10 19 -2 19 -8 0 -16 -7 -19
-15z"/>
<path d="M1123 7776 c14 -10 15 -15 5 -19 -9 -4 -9 -6 -1 -6 6 -1 15 4 18 9 3
6 16 9 28 9 17 -1 18 -2 5 -6 -10 -2 -18 -9 -18 -14 0 -13 14 -11 29 4 10 10
15 9 25 -5 7 -10 16 -15 19 -12 13 13 -44 45 -85 50 -38 4 -41 3 -25 -10z"/>
<path d="M985 7770 c-8 -13 15 -13 35 0 12 8 11 10 -7 10 -12 0 -25 -4 -28
-10z"/>
<path d="M1040 7769 c0 -5 6 -9 13 -9 6 0 23 -3 37 -7 36 -9 19 6 -19 17 -19
5 -31 5 -31 -1z"/>
<path d="M1160 7710 c0 -13 11 -13 30 0 12 8 11 10 -7 10 -13 0 -23 -4 -23
-10z"/>
<path d="M1656 7571 c-4 -7 -5 -15 -2 -18 9 -9 19 4 14 18 -4 11 -6 11 -12 0z"/>
<path d="M1730 7566 c0 -9 5 -16 10 -16 6 0 10 4 10 9 0 6 -4 13 -10 16 -5 3
-10 -1 -10 -9z"/>
<path d="M1737 7522 c-5 -7 -12 -10 -17 -7 -5 3 -11 1 -14 -4 -7 -10 32 -27
41 -18 2 3 3 14 1 24 -3 13 -6 15 -11 5z"/>
<path d="M715 7242 c-15 -10 -33 -52 -40 -92 -7 -33 -6 -34 9 -15 8 11 16 29
16 40 0 11 7 32 14 48 16 29 16 30 1 19z"/>
<path d="M830 7210 c0 -5 5 -10 10 -10 6 0 10 5 10 10 0 6 -4 10 -10 10 -5 0
-10 -4 -10 -10z"/>
<path d="M900 7195 c0 -8 5 -15 10 -15 6 0 10 7 10 15 0 8 -4 15 -10 15 -5 0
-10 -7 -10 -15z"/>
<path d="M726 7174 c-11 -7 -18 -16 -15 -18 2 -2 13 2 23 10 11 7 18 16 15 18
-2 2 -13 -2 -23 -10z"/>
<path d="M800 7170 c0 -5 5 -10 11 -10 5 0 7 5 4 10 -3 6 -8 10 -11 10 -2 0
-4 -4 -4 -10z"/>
<path d="M830 7130 c0 -5 5 -10 10 -10 6 0 10 5 10 10 0 6 -4 10 -10 10 -5 0
-10 -4 -10 -10z"/>
<path d="M2246 6996 c3 -8 12 -12 20 -9 21 8 17 23 -6 23 -13 0 -18 -5 -14
-14z"/>
<path d="M2295 6990 c3 -5 11 -10 16 -10 6 0 7 5 4 10 -3 6 -11 10 -16 10 -6
0 -7 -4 -4 -10z"/>
<path d="M2216 6983 c-11 -11 -6 -23 9 -23 8 0 15 4 15 9 0 13 -16 22 -24 14z"/>
<path d="M2364 6951 c21 -17 46 -31 55 -31 13 1 12 3 -4 15 -11 8 -25 18 -31
23 -6 5 -21 13 -35 17 -19 6 -16 1 15 -24z"/>
<path d="M2200 6940 c0 -5 5 -10 10 -10 6 0 10 5 10 10 0 6 -4 10 -10 10 -5 0
-10 -4 -10 -10z"/>
<path d="M3060 6935 c0 -9 9 -15 21 -15 18 0 19 2 9 15 -7 8 -16 15 -21 15 -5
0 -9 -7 -9 -15z"/>
<path d="M2990 6889 c0 -17 4 -28 10 -24 5 3 7 12 4 20 -4 10 1 12 18 9 22 -5
22 -5 4 10 -28 23 -36 20 -36 -15z"/>
<path d="M2255 6870 c3 -5 8 -10 11 -10 2 0 4 5 4 10 0 6 -5 10 -11 10 -5 0
-7 -4 -4 -10z"/>
<path d="M3045 6870 c3 -5 8 -10 11 -10 2 0 4 5 4 10 0 6 -5 10 -11 10 -5 0
-7 -4 -4 -10z"/>
<path d="M2513 6839 c11 -16 24 -29 28 -29 4 0 9 -6 11 -13 2 -8 12 -11 26 -8
21 5 18 9 -32 42 -54 36 -54 36 -33 8z"/>
<path d="M2290 6850 c0 -5 5 -10 11 -10 5 0 7 5 4 10 -3 6 -8 10 -11 10 -2 0
-4 -4 -4 -10z"/>
<path d="M2695 6839 c-11 -17 1 -21 15 -4 8 9 8 15 2 15 -6 0 -14 -5 -17 -11z"/>
<path d="M2340 6821 c0 -11 31 -24 39 -16 3 3 -1 10 -9 15 -19 12 -30 12 -30
1z"/>
<path d="M2390 6791 c0 -5 7 -12 16 -15 24 -9 28 -7 14 9 -14 17 -30 20 -30 6z"/>
<path d="M2628 6793 c7 -3 16 -2 19 1 4 3 -2 6 -13 5 -11 0 -14 -3 -6 -6z"/>
<path d="M2480 6756 c14 -8 27 -12 29 -10 6 6 -1 11 -29 18 l-25 7 25 -15z"/>
<path d="M2570 6731 c25 -14 98 -22 105 -11 4 6 -6 10 -22 11 -15 0 -44 2 -63
4 -22 3 -30 2 -20 -4z"/>
<path d="M940 6571 c14 -11 27 -15 29 -10 4 13 2 15 -29 23 l-25 7 25 -20z"/>
<path d="M1010 6559 c0 -5 5 -7 10 -4 6 3 10 8 10 11 0 2 -4 4 -10 4 -5 0 -10
-5 -10 -11z"/>
<path d="M1120 6549 c0 -5 5 -7 10 -4 6 3 10 8 10 11 0 2 -4 4 -10 4 -5 0 -10
-5 -10 -11z"/>
<path d="M1006 6531 c-10 -16 8 -21 40 -11 16 4 21 9 12 9 -9 1 -23 4 -31 7
-8 3 -18 1 -21 -5z"/>
<path d="M950 6509 c0 -15 18 -19 23 -6 3 8 -1 14 -9 14 -8 0 -14 -4 -14 -8z"/>
<path d="M1176 6491 c-12 -5 -15 -10 -9 -14 6 -4 16 0 23 8 14 17 13 17 -14 6z"/>
<path d="M602 4758 c-57 -28 -119 -99 -124 -143 -2 -19 -2 -35 0 -35 1 0 20
11 40 25 20 14 48 25 62 25 l25 0 -25 13 c-14 7 -26 9 -28 5 -2 -4 -10 -8 -18
-8 -8 0 -14 -4 -14 -10 0 -5 -7 -10 -15 -10 -20 0 -19 12 5 41 45 55 88 89
113 89 12 0 28 4 35 9 9 5 32 0 63 -15 53 -26 63 -29 55 -15 -10 16 -86 51
-109 51 -12 -1 -41 -10 -65 -22z"/>
<path d="M623 4710 c-28 -12 -30 -24 -3 -15 12 4 26 0 36 -10 9 -9 19 -13 23
-9 3 4 1 9 -6 11 -7 2 -9 11 -6 19 6 16 -11 17 -44 4z"/>
<path d="M686 4699 c3 -5 16 -9 30 -9 14 0 23 4 20 9 -3 5 -17 9 -31 9 -13 0
-22 -4 -19 -9z"/>
<path d="M570 4675 c0 -8 2 -15 4 -15 2 0 6 7 10 15 3 8 1 15 -4 15 -6 0 -10
-7 -10 -15z"/>
<path d="M680 4639 c0 -5 5 -7 10 -4 6 3 10 8 10 11 0 2 -4 4 -10 4 -5 0 -10
-5 -10 -11z"/>
<path d="M3317 4560 c-19 -50 -6 -62 16 -14 19 39 21 54 9 54 -5 0 -16 -18
-25 -40z"/>
<path d="M3305 4427 c-18 -43 -22 -292 -5 -302 6 -4 8 -11 5 -16 -4 -5 -2 -16
3 -25 5 -10 8 44 6 138 -2 84 1 171 6 193 12 52 4 58 -15 12z"/>
<path d="M509 4290 c-13 -10 -19 -19 -12 -20 6 0 15 4 18 10 3 5 20 14 38 19
30 9 31 9 6 10 -15 1 -37 -8 -50 -19z"/>
<path d="M454 4178 c0 -22 2 -22 31 1 l24 18 -27 -1 c-19 -1 -28 -6 -28 -18z"/>
<path d="M390 4172 c0 -5 7 -13 16 -16 10 -4 14 -1 12 6 -5 15 -28 23 -28 10z"/>
<path d="M435 4111 c-3 -5 -1 -12 5 -16 5 -3 10 1 10 9 0 18 -6 21 -15 7z"/>
<path d="M428 4074 c-4 -5 -1 -16 5 -25 14 -19 57 -43 57 -32 -1 14 -27 43
-38 43 -6 0 -12 5 -14 12 -3 7 -7 8 -10 2z"/>
<path d="M1330 4051 c0 -6 5 -13 10 -16 6 -3 10 1 10 9 0 9 -4 16 -10 16 -5 0
-10 -4 -10 -9z"/>
<path d="M1309 3915 c-8 -8 1 -54 12 -61 5 -3 9 3 8 13 -1 25 -13 55 -20 48z"/>
<path d="M1391 3901 c-14 -25 -14 -44 -1 -36 6 4 8 10 5 15 -3 5 2 13 11 18
11 6 13 12 6 16 -6 4 -16 -2 -21 -13z"/>
<path d="M1431 3862 c-6 -15 -27 -45 -46 -66 -31 -35 -40 -40 -97 -45 -58 -6
-60 -7 -29 -14 62 -13 98 1 146 56 25 29 45 62 45 74 0 30 -5 29 -19 -5z"/>
<path d="M850 3849 c0 -5 5 -7 10 -4 6 3 10 8 10 11 0 2 -4 4 -10 4 -5 0 -10
-5 -10 -11z"/>
<path d="M1336 3835 c-3 -8 -12 -12 -21 -9 -9 4 -15 1 -15 -9 0 -8 -6 -17 -12
-20 -7 -2 -10 -8 -5 -12 4 -5 13 -3 19 3 7 7 20 12 30 12 10 0 18 7 18 15 0 8
7 15 15 15 8 0 15 5 15 10 0 16 -37 12 -44 -5z"/>
<path d="M747 3790 c-7 -33 1 -88 14 -96 8 -5 5 113 -4 122 -2 3 -7 -9 -10
-26z"/>
<path d="M858 3685 c2 -14 6 -25 8 -25 2 0 4 11 4 25 0 14 -4 25 -9 25 -4 0
-6 -11 -3 -25z"/>
<path d="M780 3670 c0 -5 5 -10 10 -10 6 0 10 5 10 10 0 6 -4 10 -10 10 -5 0
-10 -4 -10 -10z"/>
<path d="M860 3595 c0 -11 11 -15 37 -15 36 0 36 1 20 18 -16 15 -19 15 -27 2
-7 -10 -10 -11 -10 -2 0 6 -4 12 -10 12 -5 0 -10 -7 -10 -15z"/>
<path d="M1735 3270 c-3 -5 0 -10 8 -10 20 0 68 -47 69 -68 0 -9 -3 -26 -7
-37 -7 -19 -7 -19 10 -4 15 15 16 22 5 53 -6 20 -24 45 -40 56 -32 23 -36 24
-45 10z"/>
<path d="M1554 3256 c-17 -13 -15 -14 22 -9 23 3 51 0 63 -6 12 -7 21 -8 21
-2 0 26 -77 38 -106 17z"/>
<path d="M1690 3229 c-26 -7 -19 -12 15 -10 11 1 26 -3 34 -8 12 -8 12 -12 2
-25 -9 -11 -10 -16 -2 -16 6 0 11 5 11 11 0 5 5 7 10 4 14 -9 12 8 -2 27 -17
21 -38 26 -68 17z"/>
<path d="M1221 3159 c-5 -16 -5 -26 3 -31 10 -7 1 -12 -16 -9 -5 0 -8 -6 -8
-14 0 -8 7 -15 15 -15 8 0 15 4 15 10 0 15 52 36 87 36 17 -1 29 2 26 7 -2 4
1 7 6 7 6 0 11 -4 11 -10 0 -5 10 -10 22 -10 20 0 21 1 7 16 -9 8 -32 17 -52
18 -28 3 -34 0 -29 -12 4 -12 1 -14 -12 -9 -10 4 -20 7 -22 7 -3 0 -2 5 2 12
4 7 3 8 -5 4 -6 -4 -18 -2 -26 4 -12 10 -16 8 -24 -11z"/>
<path d="M1385 2659 c-9 -17 -14 -38 -10 -46 9 -25 22 -1 24 46 1 7 7 11 16 7
9 -3 15 0 15 9 0 26 -29 16 -45 -16z"/>
<path d="M1440 2669 c0 -5 5 -7 10 -4 6 3 10 8 10 11 0 2 -4 4 -10 4 -5 0 -10
-5 -10 -11z"/>
<path d="M1320 2560 c0 -29 3 -50 7 -46 7 7 5 87 -3 95 -2 2 -4 -20 -4 -49z"/>
<path d="M1400 2596 c0 -7 -9 -16 -20 -19 -20 -5 -29 -27 -11 -27 5 0 7 -10 3
-22 -3 -14 -2 -19 6 -14 7 4 12 13 12 20 0 8 7 19 15 26 17 14 20 50 5 50 -5
0 -10 -6 -10 -14z"/>
<path d="M1815 2500 c4 -6 11 -8 16 -5 14 9 11 15 -7 15 -8 0 -12 -5 -9 -10z"/>
<path d="M1346 2465 c18 -28 34 -33 34 -10 0 8 -9 19 -19 25 -30 15 -33 12
-15 -15z"/>
<path d="M1830 2471 c0 -5 5 -13 10 -16 6 -3 10 -2 10 4 0 5 -4 13 -10 16 -5
3 -10 2 -10 -4z"/>
<path d="M1857 2387 c-10 -32 -24 -60 -32 -64 -8 -3 -15 -11 -15 -19 0 -8 -6
-14 -13 -14 -18 0 -95 -39 -78 -40 24 0 91 23 91 32 0 4 6 8 12 8 13 0 78 68
78 82 0 4 -4 8 -9 8 -6 0 -11 15 -13 33 -3 30 -5 28 -21 -26z"/>
<path d="M1370 2410 c0 -5 5 -10 10 -10 6 0 10 5 10 10 0 6 -4 10 -10 10 -5 0
-10 -4 -10 -10z"/>
<path d="M1810 2400 c0 -5 5 -10 10 -10 6 0 10 5 10 10 0 6 -4 10 -10 10 -5 0
-10 -4 -10 -10z"/>
<path d="M1777 2349 l-28 -34 5 30 c5 27 4 28 -7 11 -27 -42 -48 -56 -83 -56
-21 0 -33 -4 -29 -10 8 -14 64 -10 95 7 41 21 83 60 78 73 -2 7 -15 -2 -31
-21z"/>
<path d="M3638 1153 c12 -2 30 -2 40 0 9 3 -1 5 -23 4 -22 0 -30 -2 -17 -4z"/>
<path d="M3535 1110 c-3 -5 -1 -10 4 -10 6 0 11 5 11 10 0 6 -2 10 -4 10 -3 0
-8 -4 -11 -10z"/>
<path d="M3500 1076 c0 -8 -7 -16 -15 -20 -8 -3 -15 -11 -15 -17 0 -7 11 -2
25 11 26 25 32 40 15 40 -5 0 -10 -6 -10 -14z"/>
<path d="M3457 1006 c-4 -10 -5 -21 -2 -24 9 -9 17 6 13 25 -3 17 -4 17 -11
-1z"/>
<path d="M3475 975 c-22 -19 -37 -36 -34 -39 3 -3 16 5 29 19 13 14 29 25 36
25 15 0 27 17 17 23 -5 3 -26 -10 -48 -28z"/>
<path d="M4509 863 c-15 -3 -34 -42 -25 -50 1 -2 13 6 26 17 13 11 27 20 32
20 5 0 6 5 3 10 -6 10 -9 11 -36 3z"/>
<path d="M4600 860 c0 -5 9 -10 21 -10 11 0 17 5 14 10 -3 6 -13 10 -21 10 -8
0 -14 -4 -14 -10z"/>
<path d="M3650 810 c-18 -12 -2 -12 25 0 13 6 15 9 5 9 -8 0 -22 -4 -30 -9z"/>
<path d="M3610 774 c0 -9 -9 -29 -21 -46 -30 -41 -20 -41 21 0 19 20 29 32 21
28 -10 -7 -12 -3 -6 13 4 12 2 21 -4 21 -6 0 -11 -7 -11 -16z"/>
<path d="M3655 780 c-16 -6 -14 -8 13 -7 17 0 32 4 32 9 0 10 -18 9 -45 -2z"/>
<path d="M4587 693 c-2 -21 -1 -45 4 -53 5 -10 9 4 9 38 0 61 -6 68 -13 15z"/>
<path d="M3610 675 c0 -8 2 -15 4 -15 2 0 6 7 10 15 3 8 1 15 -4 15 -6 0 -10
-7 -10 -15z"/>
<path d="M3560 618 c0 -60 8 -98 21 -98 4 0 3 14 -3 30 -5 17 -8 50 -6 75 2
25 0 45 -4 45 -5 0 -8 -24 -8 -52z"/>
<path d="M3608 616 c-3 -14 -3 -28 1 -31 8 -9 0 -79 -10 -85 -4 -3 -1 -17 9
-32 17 -25 17 -24 16 68 0 93 -7 127 -16 80z"/>
<path d="M4530 595 c0 -19 5 -25 23 -24 12 0 16 3 10 6 -7 2 -13 13 -13 24 0
10 -4 19 -10 19 -5 0 -10 -11 -10 -25z"/>
<path d="M4581 529 c-16 -22 -29 -30 -45 -27 -13 3 -31 -5 -46 -19 -13 -13
-19 -23 -13 -23 7 0 15 5 18 10 4 6 11 8 16 5 5 -4 9 -2 9 4 0 6 6 8 13 5 15
-6 62 29 77 57 17 30 -4 22 -29 -12z"/>
<path d="M4520 535 c0 -8 5 -15 10 -15 6 0 10 7 10 15 0 8 -4 15 -10 15 -5 0
-10 -7 -10 -15z"/>
<path d="M4160 511 c0 -18 -4 -30 -10 -26 -5 3 -18 -3 -28 -13 -11 -11 -26
-22 -33 -24 -8 -3 -12 -8 -9 -11 10 -11 70 25 90 53 17 24 18 29 5 40 -13 11
-15 8 -15 -19z"/>
<path d="M4199 478 c-7 -12 -21 -30 -33 -40 -12 -9 -16 -17 -10 -18 17 0 64
47 64 65 0 21 -7 19 -21 -7z"/>
<path d="M4095 405 c-16 -8 -43 -15 -60 -15 -16 -1 -39 -6 -50 -11 -14 -7 -5
-8 33 -5 58 6 122 25 122 38 0 11 -9 9 -45 -7z"/>
<path d="M3920 390 c0 -5 9 -10 21 -10 11 0 17 5 14 10 -3 6 -13 10 -21 10 -8
0 -14 -4 -14 -10z"/>
</g>
</svg>
